<svg version="1.2" baseProfile="tiny" id="Слой_1" xmlns="http://www.w3.org/2000/svg" xmlns:xlink="http://www.w3.org/1999/xlink" x="0px" y="0px" viewBox="0 0 822 444" overflow="visible" xml:space="preserve">
	<path fill="none" stroke="#000000" stroke-width="10" stroke-miterlimit="10" d="M449.3,85.4c-59.5-3.8-119.4-2.2-178.7,4.7
	c-42.5,4.9-90.4,16.5-110.5,54.2c-17.6,33.1-6.5,74.5,12.1,107c31.8,55.5,84,97.8,142.3,124.3c58.3,26.5,122.5,38,186.4,41
	c78.4,3.7,159.8-5.9,228.1-44.6c44.7-25.4,85.4-70.3,80.2-121.5c-3.4-33.1-25.5-61.5-50.6-83.4c-36.1-31.5-79.6-53.4-124.2-71.1
	c-92.2-36.5-191.2-56-290.3-57.2c-47-0.5-94.4,3.1-139.5,16.4c-44.1,13-89.8,40.8-99.5,85.7c-5.8,26.8,2.6,54.8,15.7,78.8
	c35.2,64.6,102.2,105.8,170.8,132.4c71,27.5,146.9,42.4,223,43.7c49.2,0.9,99.2-4.1,145.2-21.4c46.1-17.4,88.2-48,113.2-90.4
	c13.5-22.8,21.7-48.7,24-75.2c1.8-20.6-0.1-41.8-8.3-60.8c-14.8-34.7-48.2-58-82.6-73.4c-55.7-25-117.1-34.1-177.9-39.4
	c-69.4-6-139.3-7.3-208.9-3.8c-70,3.5-140.9,12-205.4,39.7c-36.8,15.8-73.7,41.1-84.5,79.6c-10.6,37.7,6.7,77.9,29.8,109.6
	c35.6,48.9,85.4,86.4,140,112.6s113.8,41.4,173.6,50.7c50.8,7.9,102.2,11.5,153.6,10.9c42.9-0.5,86.2-4,126.9-17.6
	s78.8-37.9,102.9-73.4c38.4-56.7,34.4-135.7-0.5-194.6C721.1,89.9,659.6,50,594,30.3s-135.4-20.8-203.7-16
	C323.5,19,256.6,29.4,194.3,53.7S74.3,117,35.2,171.2c-12.4,17.2-23.2,37.4-20.9,58.4c2,18.8,14.5,35.2,29.9,46.2
	c15.4,11,33.5,17.4,51.4,23.4c67.6,22.6,136.4,41.4,206.1,56.2" />
</svg>
