<?xml version="1.0" encoding="utf-8"?>
<!-- Generator: Adobe Illustrator 25.1.0, SVG Export Plug-In . SVG Version: 6.00 Build 0)  -->
<svg version="1.1" id="circle_1" xmlns="http://www.w3.org/2000/svg" xmlns:xlink="http://www.w3.org/1999/xlink" x="0px" y="0px"
	 viewBox="0 0 1276 628" preserveAspectRatio="none" xml:space="preserve">
<style type="text/css">
	.st1{fill:none;stroke:#000000;stroke-width:2;stroke-miterlimit:10;}
</style>
<path class="st1" d="M1189.4,292.3c7.2-67.8-142.4-146.3-208.2-175.6C918.9,89,853.7,69.4,785.8,63
	c-139.1-13.1-279.9-7.8-417.6,15.6C269.9,95.3,171.3,122.1,87.4,176C42.2,205,4.5,250.4,6,304c1.5,47.4,15,112,49,150
	c68,73,201.9,85.4,312,99c201.4,24.9,434,1.8,633-38c70.1-14,142.8-41.4,206-75c37.5-19.9,64.3-62.6,65-105
	c0.5-34.5-19.7-63.3-45.9-85.6c-72-61-163.2-94.6-254.4-118.8c-120-31.8-243.8-49.4-367.9-52.3c-108.7-2.6-219.1,6.4-321.4,43.4
	C244.7,135,211.5,142.4,175,160C13.4,224.1-17.2,352.4,125,489c75.5,65.3,186.5,100.1,283.8,122.3c111.5,16,230.5,11.1,344.9-6
	c122.4-27.1,240-75.6,345.9-142.7c39-24.7,76.9-52.4,106.1-88.2s49.2-80.7,47.9-126.9c-1.5-53.5-31.6-103.4-72.3-138.2
	s-91.3-55.9-142.6-71.5C895.6-0.7,682,0,531.1,25.4C398.1,46.4,373.9,56.1,283,89C189,123,73,214,63.4,336.2"/>
</svg>
