<?xml version="1.0" encoding="utf-8"?>
<!-- Generator: Adobe Illustrator 25.1.0, SVG Export Plug-In . SVG Version: 6.00 Build 0)  -->
<svg version="1.1" id="Слой_1" xmlns="http://www.w3.org/2000/svg" xmlns:xlink="http://www.w3.org/1999/xlink" x="0px" y="0px"
	 viewBox="0 0 1799 974" preserveAspectRatio="none" xml:space="preserve">
<style type="text/css">
	.st2{fill:none;stroke:#FFFFFF;stroke-miterlimit:10;}
</style>
<path class="st2" d="M1118.5,34.2c-218.5-15.6-440-9-653.4,40.4c-75.7,17.5-151.9,41.3-213.5,88.6c-51.9,39.8-90.8,94.4-121.9,152
	c-24.1,44.5-44.4,93.1-43.2,143.6c2.1,92.6,74.4,168.3,150,221.8c78.5,55.5,165.4,98.3,254.7,134.1
	c209.2,84,433.2,131.1,658.5,138.4c123.1,4,247.7-4,366-38.5c83.4-24.4,166.4-64.5,218-134.4c66.3-89.8,69-213.2,41.5-321.4
	c-25.7-101.5-77-198.9-157.7-265.6c-75.8-62.7-172.3-94.7-268.7-114C1195.7,48.6,1038.4,47,882.6,54.4
	c-237.3,11.3-483.1,46.5-681,178.1c-51,33.9-98.8,74.7-131,126.9s-47.2,117-30.5,176c10.2,36.2,31.6,68.2,55,97.5
	c121.8,152.8,305.6,247.9,496.3,290.4s389.2,36.3,583.4,14.6c109.1-12.2,219.5-29.7,318.2-77.6c98.8-47.8,185.6-130.2,215.6-235.7
	c37.9-133.3-21.6-278.4-114.2-381.5c-77-85.7-177.1-150.5-286.8-185.7c-88.6-28.4-182.3-37.6-275.4-40.9
	c-137.1-4.7-274.7,3.2-410.4,23.6c-89.8,13.5-180.6,33.2-259.3,78.6c-68.6,39.6-124.9,97.1-177.2,156.7c-30.7,35-61,72.3-74,117
	c-19.5,67.4,3.8,139.5,33.8,202.9c26.6,56.4,59.3,111,105,153.4c90.4,83.9,219,109.9,341.1,127.3c203.1,29,412.8,43.7,611.4-8
	c198.6-51.7,386.2-179.4,466.4-368.3c25.4-60,39.6-126.7,27-190.6c-14.7-74.3-64.7-138.3-126.7-181.7
	c-62-43.4-135.3-68.1-209.1-84.6C1238.7,15.4,1113.5,8.7,988.9,8.3c-142.6-0.5-285.2,7.2-426.9,23c-81.2,9-163.4,21.1-238,54.4
	c-95.9,42.8-173.6,118.1-240.3,199.1c-28.7,34.8-56.3,72-69,115.3c-22,75.4,6,158.6,55.4,219.7s117.7,103.7,186.3,141.8
	c198.1,110,415.6,193.6,641.9,204.2c226.3,10.6,462.6-58.7,622.7-219.1c38.7-38.8,73-83,92.9-134c14.4-36.8,21-76.3,23.2-115.7
	c5.9-111.3-24.5-224.2-85.5-317.4"/>
</svg>
