<?xml version="1.0" encoding="utf-8"?>
<!-- Generator: Adobe Illustrator 25.1.0, SVG Export Plug-In . SVG Version: 6.00 Build 0)  -->
<svg version="1.1" id="Слой_1" xmlns="http://www.w3.org/2000/svg" xmlns:xlink="http://www.w3.org/1999/xlink" x="0px" y="0px"
	 viewBox="0 0 1006 476" preserveAspectRatio="none" xml:space="preserve">
<style type="text/css">
	.st0{fill:none;stroke:#000000;stroke-width:2;stroke-miterlimit:10;}
</style>
<path class="st0" d="M624,57.3C476.3,41.7,323.4,26.6,182,72.2c-38.8,12.5-80.1,33.5-93.2,72.2c-9.5,28-1.7,59,10.6,85.9
	c32.4,70.9,94.5,125.3,164.3,160.1s147,51.9,224.1,63.4c125.6,18.7,256.7,23.3,377.1-17.3c29.6-10,58.8-22.9,82.9-42.8
	s43.1-47.4,47.8-78.3c5.9-38.4-10.5-77.1-32.3-109.3C926,151,871.5,107.6,809.4,83.7c-41.1-15.8-84.9-23.2-128.3-30.6
	c-75.8-12.8-151.5-25.5-227.3-38.3C414.5,8.3,374.5,1.6,335,7c-32.4,4.4-63.2,16.7-93,30.2c-63,28.4-125.2,63.3-169.5,116.3
	c-16.1,19.2-30.1,42.3-29.5,67.4c0.8,32.4,25.8,59.2,52.6,77.5c41.7,28.6,90.5,44.7,139.4,57.7c104.1,27.6,211.2,42.3,317.9,56.8
	c64.8,8.9,129.9,17.7,195.3,18.1c29.5,0.2,59.3-1.4,87.6-9.7c47.4-13.9,87.9-45.8,120.2-83.2c25.8-29.9,48.1-66.7,45.2-106.1
	c-2.3-31.2-20.5-59.8-44.6-79.8c-24.1-20-53.6-32.4-83.5-41.7c-63.9-19.9-131-26.9-197.7-32.1C556.2,69,436.2,64.8,316.7,71.6
	c-92.1,5.2-189,19-261.3,76.3c-23.7,18.8-45.1,44-48.2,74.1c-4.5,43.6,30.1,81.6,66.9,105.5c53,34.4,114.6,53.1,176.1,67.7
	c124,29.5,251.4,44.4,378.8,44.4c105,0,210.5-10.3,311.6-38.5c29.6-8.2,61.1-19.7,77.9-45.5"/>
</svg>
