<?xml version="1.0" encoding="utf-8"?>
<!-- Generator: Adobe Illustrator 25.1.0, SVG Export Plug-In . SVG Version: 6.00 Build 0)  -->
<svg version="1.2" baseProfile="tiny" id="e2165270-d70d-4354-9ac9-1848d055b0c2"
	 xmlns="http://www.w3.org/2000/svg" xmlns:xlink="http://www.w3.org/1999/xlink" x="0px" y="0px" viewBox="0 0 971.4 662"
	 overflow="visible" xml:space="preserve">
<path fill="none" stroke="#000000" stroke-width="2" stroke-miterlimit="10" d="M110.3,570.2c-3.1-10.2-6.3-26.2-2.1-42.3
	c7-26.6,31.5-43.2,31.5-43.2s8.5,17.2,8.2,37.8"/>
<path fill="none" stroke="#000000" stroke-width="2" stroke-miterlimit="10" d="M148.8,570.1c4.8-2.7,9.5-6.1,13.7-10.3
	c19.6-19.3,21.8-48.8,21.8-48.8s-29.5,1.8-49.1,21.2c-12.1,11.9-17.5,27.7-19.9,38.1"/>
<path fill="none" stroke="#000000" stroke-width="2" stroke-miterlimit="10" d="M83.3,570.2h76.5c8.4,0,15.2,6.8,15.2,15.2v15.1
	c0,8.4-6.8,15.2-15.2,15.2H83.3c-8.4,0-15.2-6.8-15.2-15.2v-15.1C68.1,577,74.9,570.2,83.3,570.2z"/>
<path fill="none" stroke="#000000" stroke-width="2" stroke-miterlimit="10" d="M892.9,585.7c10.7,0,19.5-8.7,19.5-19.5
	s-8.7-19.5-19.5-19.5"/>
<path fill="none" stroke="#000000" stroke-width="2" stroke-miterlimit="10" d="M892.9,554.2c6.6,0,12,5.4,12,12l0,0
	c0,6.6-5.4,12-12,12"/>
<path fill="none" stroke="#000000" stroke-width="2" stroke-miterlimit="10" d="M892.9,554.2v51.6c0,5.4-4.4,9.8-9.8,9.8l0,0h-55.3
	c-5.4,0-9.8-4.4-9.8-9.8l0,0v-74.1l0,0h74.8l0,0v15"/>
<path fill="none" stroke="#000000" stroke-width="2" stroke-miterlimit="10" d="M892.9,546.7v7.5"/>
<rect y="615.6" fill="none" stroke="#000000" stroke-width="2" stroke-miterlimit="10" width="971.4" height="32.9"/>
<path fill="none" stroke="#000000" stroke-width="2" stroke-miterlimit="10" d="M449.5,321.6c-37.6,5-86.4,26.2-104.6,56.1"/>
<path fill="none" stroke="#000000" stroke-width="2" stroke-miterlimit="10" d="M627.9,377.7c-18.1-29.7-66.7-50.9-104.3-56"/>
<path fill="none" stroke="#000000" stroke-width="2" stroke-miterlimit="10" d="M627.9,377.7"/>
<path fill="none" stroke="#000000" stroke-width="2" stroke-miterlimit="10" d="M564.5,77.4C588,98.7,603,130.3,603,164.5
	c0,4.7-0.3,9.4-0.8,14"/>
<path fill="none" stroke="#000000" stroke-width="2" stroke-miterlimit="10" d="M371.4,178.3c-0.5-4.5-0.8-9.2-0.8-13.8
	c0-36.8,17.1-69.5,43.7-90.8"/>
<path fill="none" stroke="#000000" stroke-width="2" stroke-miterlimit="10" d="M523.8,287.7v30.5c0,1.2-0.1,2.4-0.2,3.5"/>
<path fill="none" stroke="#000000" stroke-width="2" stroke-miterlimit="10" d="M523.6,321.7c-1.8,18.9-17.7,33.7-37.1,33.7h0
	c-20.6,0-37.2-16.7-37.2-37.2v-30.6"/>
<path fill="none" stroke="#000000" stroke-width="2" stroke-miterlimit="10" d="M576.1,130.1c10.7,16.6,17.5,36.3,17.5,57.5
	c0,59-47.8,106.8-106.8,106.8s-106.8-47.8-106.8-106.8c0-30.6,12.9-58.2,33.5-77.7"/>
<path fill="none" stroke="#000000" stroke-width="2" stroke-miterlimit="10" d="M436,119c24.9,20,70.1,39.5,140.7,12"/>
<path fill="none" stroke="#000000" stroke-width="2" stroke-miterlimit="10" d="M436.7,119.3c-9.5-1.2-19.1-3.9-24-9"/>
<path fill="none" stroke="#000000" stroke-width="2" stroke-miterlimit="10" d="M413.9,74c2.9-5.7,7.2-11.3,11.8-15.8
	c21-20.8,55.4-25.1,73.1-48.8c4.2,6.6,1,16.7-6.3,19.5c16.9-0.1,36.5-1.6,46.1-15.5c4.8,11.2,2.7,24.2-5.3,33.4
	c15,0.7,31,10.9,32,25.8c0.1,1.9,0,3.8-0.4,5.7"/>
<path fill="none" stroke="#000000" stroke-width="2" stroke-miterlimit="10" d="M593.6,188.6h-2.8l-55.1,49c-53-24.8-92,0-92,0
	l-57.7-47l-5.8,0.7c1.7,58.9,50.8,105.4,109.7,103.7C547.5,293.4,593.4,246.3,593.6,188.6z M486.6,256.4c-20.8,0-37.6-4.2-37.6-9.4
	s16.8-9.4,37.6-9.4s37.6,4.2,37.6,9.4S507.4,256.4,486.6,256.4z"/>
<path fill="none" stroke="#000000" stroke-width="2" stroke-miterlimit="10" d="M381.6,205.9c-0.5,0.2-1.1,0.2-1.6,0.2
	c-5.5,0-9.9-8.3-9.9-18.6s4.4-18.6,9.9-18.6c0.6,0,1.1,0.1,1.6,0.3"/>
<path fill="none" stroke="#000000" stroke-width="2" stroke-miterlimit="10" d="M592,169.2c0.5-0.2,1-0.2,1.6-0.2
	c5.5,0,9.9,8.3,9.9,18.6s-4.4,18.6-9.9,18.6c-0.5,0-1-0.1-1.5-0.2"/>
<g>
	<path fill="none" stroke="#000000" stroke-width="2" stroke-miterlimit="10" d="M344.8,377.7h333c8,0,14.5,6.5,14.5,14.5v208.9
		c0,8-6.5,14.5-14.5,14.5H293.7c-8,0-14.5-6.5-14.5-14.5V392.2c0-8,6.5-14.5,14.5-14.5H344.8"/>
</g>
<path fill="none" stroke="#000000" stroke-width="2" stroke-miterlimit="10" d="M313.5,382.1H658c14.8,0,26.8,12,26.8,26.8v179.8
	c0,14.8-12,26.8-26.8,26.8H313.5c-14.8,0-26.8-12-26.8-26.8V408.9C286.6,394.1,298.7,382.1,313.5,382.1z"/>
<circle fill="none" stroke="#000000" stroke-width="2" stroke-miterlimit="10" cx="485.7" cy="498.8" r="13.5"/>
<rect x="41.2" y="648.5" fill="none" stroke="#000000" stroke-width="2" stroke-miterlimit="10" width="889.1" height="13.5"/>
</svg>
