<?xml version="1.0" encoding="utf-8"?>
<!-- Generator: Adobe Illustrator 25.1.0, SVG Export Plug-In . SVG Version: 6.00 Build 0) -->
<svg version="1.1" id="aboutsvg" xmlns="http://www.w3.org/2000/svg" xmlns:xlink="http://www.w3.org/1999/xlink" x="0px" y="0px" viewBox="0 0 971.4 662" style="enable-background:new 0 0 971.4 662;" xml:space="preserve">
	<rect fill="#e0e0e0" stroke="#000000" stroke-width="2" stroke-miterlimit="10" x="41.2" y="648.5" width="889.1" height="13.5" />
	<rect fill="#e0e0e0" stroke="#000000" stroke-width="2" stroke-miterlimit="10" y="615.6" width="971.4" height="32.9" />
	<path fill="#000000" stroke="#000000" stroke-width="2" stroke-miterlimit="10" id="Pot_4_" d="M115.3,570.2h-5 M110.3,570.2h-27c-8.4,0-15.2,6.8-15.2,15.2v15.1c0,8.4,6.8,15.2,15.2,15.2h76.5
	c8.4,0,15.2-6.8,15.2-15.2v-15.1c0-8.4-6.8-15.2-15.2-15.2h-44.5" />
	<path fill="#3f3d56" stroke="#000000" stroke-width="2" stroke-miterlimit="10" id="rleaf" d="M115.3,570.3c2.4-10.4,7.8-26.2,19.9-38.1c3.9-3.9,8.3-7.1,12.7-9.7l0,0c0.3-20.6-8.2-37.8-8.2-37.8
	s-24.5,16.6-31.5,43.2c-4.2,16.1-1,32.1,2.1,42.3C110.3,570.2,115.3,570.2,115.3,570.3" />
	<path fill="#000000" stroke="#000000" stroke-width="2" stroke-miterlimit="10" id="lLeaf" d="M147.9,522.5c-4.4,2.6-8.8,5.8-12.7,9.7c-12.1,11.9-17.5,27.7-19.9,38.1 M115.3,570.2h33.3
	c4.8-2.7,9.7-6.2,13.9-10.4c19.6-19.3,21.8-48.8,21.8-48.8s-18.8,1.1-36.4,11.5" />
	<path fill="#000000" stroke="#000000" stroke-width="2" stroke-miterlimit="10" id="Cup" d="M892.8,546.7v-15l0,0H818l0,0v74.1l0,0c0,5.4,4.4,9.8,9.8,9.8h55.3l0,0c5.4,0,9.8-4.4,9.8-9.8v-20.1
	c10.7,0,19.5-8.7,19.5-19.5S903.6,546.7,892.8,546.7z M892.9,578.2v-24c6.6,0,12,5.4,12,12l0,0C904.9,572.8,899.5,578.2,892.9,578.2
	z" />
	<path fill="#e0e0e0" stroke="#000000" stroke-width="2" stroke-miterlimit="10" id="Screen" d="M344.9,377.7h283h49.9c8,0,14.5,6.5,14.5,14.5v208.9c0,8-6.5,14.5-14.5,14.5H293.7
	c-8,0-14.5-6.5-14.5-14.5V392.2c0-8,6.5-14.5,14.5-14.5H344.9L344.9,377.7z M313.5,382.1H658c14.8,0,26.8,12,26.8,26.8v179.8
	c0,14.8-12,26.8-26.8,26.8H313.5c-14.8,0-26.8-12-26.8-26.8V408.9C286.6,394.1,298.7,382.1,313.5,382.1z" />
	<circle fill="#ffffff" stroke="#000000" stroke-width="2" stroke-miterlimit="10" id="Logo" cx="485.7" cy="498.8" r="13.5" />
	<path fill="#000000" stroke="#000000" stroke-width="2" stroke-miterlimit="10" id="Body" d="M486.5,355.4c19.4,0,35.3-14.8,37.1-33.7c37.6,5.1,86.2,26.3,104.3,56h-283
	c18.2-29.9,67-51.1,104.6-56.1C451.2,340.5,467.1,355.4,486.5,355.4z" />
	<path fill="#fda57d" stroke="#000000" stroke-width="2" stroke-miterlimit="10" id="Neck" d="M523.6,321.7c0.4-0.5,0.1-32.3,0.2-34c-23,8.9-51.6,8.8-74.5-0.1l0,0c-1.1,30.2-2.7,65.4,37.2,67.8
	C505.9,355.4,521.8,340.6,523.6,321.7z" />
	<path fill="#fda57d" stroke="#000000" stroke-width="2" stroke-miterlimit="10" id="Face" d="M593.6,188.6c0.5-20.8-6.5-41.5-17.5-58.5C505.5,157.6,460.9,139,436,119c-9.5-1.2-18.4-3.6-23.3-8.7
	c-56.5,50.4-35.1,153.5,36.7,177.3C515.8,314.6,594.9,260.9,593.6,188.6z" />
	<path fill="#72351c" stroke="#000000" stroke-width="2" stroke-miterlimit="10" id="Beard" d="M486.6,256.4c-20.8,0-37.6-4.2-37.6-9.4s16.8-9.4,37.6-9.4s37.6,4.2,37.6,9.4
	S507.4,256.4,486.6,256.4z M593.6,188.6h-2.8l-55.1,49c-53-24.8-92,0-92,0l-57.7-47l-5.9,0.7c0.2,5,0.7,9.8,1.5,14.6
	c6.5,37.7,32.8,68.6,67.8,81.7c11.7,4.4,24.3,6.8,37.5,6.8c13,0,25.5-2.3,37-6.6c35.1-13,61.5-43.9,68.1-81.6
	c0.7-3.9,1.2-7.9,1.4-12C593.5,192.4,593.6,190.5,593.6,188.6" />
	<path fill="#fda57d" stroke="#000000" stroke-width="2" stroke-miterlimit="10" id="lEar" d="M592,169.2c0.5-0.2,1-0.2,1.6-0.2c3.7,0,7,3.8,8.6,9.5c0.8,2.7,1.3,5.8,1.3,9.1
	c0,10.3-4.4,18.6-9.9,18.6c-0.5,0-1.1,0.1-1.6,0c1.1-6,1.6-12.3,1.6-18.6C593.6,181.3,593.1,175.2,592,169.2z" />
	<path fill="#fda57d" stroke="#000000" stroke-width="2" stroke-miterlimit="10" id="rEar" d="M371.4,178.3c1.7-5.6,4.9-9.2,8.6-9.4c0.6,0,1.1,0.1,1.6,0.3c-1,6-1.6,12.1-1.6,18.4
	c0,6.2,0.5,12.4,1.6,18.3c-0.5,0.2-1.1,0.2-1.6,0.2c-5.5,0-9.9-8.3-9.9-18.6C370.1,184.1,370.6,181,371.4,178.3z" />
	<path fill="#72351c" stroke="#000000" stroke-width="2" stroke-miterlimit="10" id="Hair" d="M371.4,178.3c-0.5-4.5-0.8-9.2-0.8-13.8c0-36.8,17.1-69.5,43.7-90.8c2.9-5.7,6.8-11,11.4-15.5
	c21-20.8,55.4-25.1,73.1-48.8c4.2,6.6,1,16.7-6.3,19.5c16.9-0.1,36.5-1.6,46.1-15.5c4.8,11.2,2.7,24.2-5.3,33.4
	c15,0.7,31,10.9,32,25.8c0.1,1.9,0,3.8-0.4,5.7c23.5,21.3,38.1,52,38.1,86.2c0,4.7-0.3,9.4-0.8,14c-1.7-5.7-4.9-9.5-8.6-9.5
	c-0.6,0-1.1,0-1.6,0.2c-2.7-14.2-8.4-27.4-15.9-39.1C505.5,157.6,460.9,139,436,119c-9.5-1.2-18.4-3.6-23.3-8.7
	c-16.4,15.5-27.1,35.7-31.1,58.9c-0.5-0.2-1-0.3-1.6-0.3C376.3,169.1,373.1,172.7,371.4,178.3z" />
</svg>
