<svg id="aboutsvg" data-name="Layer 1" xmlns="http://www.w3.org/2000/svg" xmlns:xlink="http://www.w3.org/1999/xlink" width="971.44041" height="662" viewBox="0 0 971.44041 662">
	<defs>
		<linearGradient id="afa9b5ae-644d-481c-a512-b5b81b77e42b" x1="979.44552" y1="738.58992" x2="979.44552" y2="646.78456" gradientUnits="userSpaceOnUse">
			<stop offset="0" stop-color="gray" stop-opacity="0.25" />
			<stop offset="0.53514" stop-color="gray" stop-opacity="0.12" />
			<stop offset="1" stop-color="gray" stop-opacity="0.1" />
		</linearGradient>
		<linearGradient id="bf9220ea-365d-417c-960f-9ff5535a2d22" x1="600.65162" y1="650.10521" x2="600.65162" y2="119" xlink:href="#afa9b5ae-644d-481c-a512-b5b81b77e42b" />
		<linearGradient id="b4202d31-0de8-4369-b735-813ee4300deb" x1="485.7202" y1="615.59838" x2="485.7202" y2="377.70425" xlink:href="#afa9b5ae-644d-481c-a512-b5b81b77e42b" />
	</defs>
	<path fill="#ffffff" d="M260.11393,656.80937c-6.98452,26.59789-31.459,43.21966-31.459,43.21966s-13.15033-26.50193-6.16581-53.09982,31.459-43.21966,31.459-43.21966S267.09845,630.21148,260.11393,656.80937Z" transform="translate(-114.2798 -119)" stroke="#000000" stroke-width="2" stroke-miterlimit="10">
		<animate id="anim_0" attributeName="fill" dur="2500ms" to="#3f3d56" begin="indefinite" fill="freeze" />
	</path>
	<path fill="#ffffff" d="M249.52,651.18266c-19.56251,19.32716-21.75117,48.83128-21.75117,48.83128s29.52845-1.83141,49.091-21.15858,21.75116-48.83129,21.75116-48.83129S269.08248,631.85549,249.52,651.18266Z" transform="translate(-114.2798 -119)" stroke="#000000" stroke-width="2" stroke-miterlimit="10">
		<animate id="anim_1" attributeName="fill" dur="2500ms" to="#000000" begin="indefinite" fill="freeze" />
	</path>
	<path fill="#ffffff" d="M83.3,573.2h76.5c8.4,0,15.2,6.8,15.2,15.2v15.1c0,8.4-6.8,15.2-15.2,15.2H83.3c-8.4,0-15.2-6.8-15.2-15.2v-15.1 C68.1,580,74.9,573.2,83.3,573.2z" stroke="#000000" stroke-width="2" stroke-miterlimit="10">
		<animate id="anim_2" attributeName="fill" dur="2500ms" to="#000000" begin="indefinite" fill="freeze" />
	</path>
	<g opacity="0.7">
		<path d="M1009.77408,663.17837V646.78456H927.805V722.606a15.984,15.984,0,0,0,15.984,15.984h50.00113a15.984,15.984,0,0,0,15.984-15.984V705.80229a21.312,21.312,0,0,0,0-42.62392Zm0,34.427v-26.2301a13.115,13.115,0,0,1,0,26.2301Z" transform="translate(-114.2798 -119)" fill="url(#afa9b5ae-644d-481c-a512-b5b81b77e42b)" />
	</g>
	<path fill="#ffffff" d="M1007.13681,665.74436a19.45875,19.45875,0,1,0,19.45875,19.45874A19.45877,19.45877,0,0,0,1007.13681,665.74436Zm0,31.43336a11.97462,11.97462,0,1,1,11.97461-11.97462A11.97462,11.97462,0,0,1,1007.13681,697.17772Z" transform="translate(-114.2798 -119)" stroke="#000000" stroke-width="2" stroke-miterlimit="10">
		<animate id="anim_3" attributeName="fill" dur="2500ms" to="#000000" begin="indefinite" fill="freeze" />
	</path>
	<path fill="#ffffff" d="M818.01569,531.77609H892.857a0,0,0,0,1,0,0v74.07228a9.75,9.75,0,0,1-9.75,9.75H827.76569a9.75,9.75,0,0,1-9.75-9.75V531.77609A0,0,0,0,1,818.01569,531.77609Z" stroke="#000000" stroke-width="2" stroke-miterlimit="10">
		<animate id="anim_4" attributeName="fill" dur="2500ms" to="#000000" begin="indefinite" fill="freeze" />
	</path>
	<path fill="#ffffff" d="M0,615.6h971.4v32.9H0V615.6z" stroke="#000000" stroke-width="2" stroke-miterlimit="10">
		<animate id="anim_5" attributeName="fill" dur="2500ms" to="#e0e0e0" begin="indefinite" fill="freeze" />
	</path>
	<g opacity="0.7">
		<path d="M753.24926,514.26464c-10.41165-37.79179-69.43785-65.38862-113.8507-71.50773.006-.27882.02112-.55536.02112-.83569V409.571c.04726-.01733.09584-.03182.143-.04925v-1.22615A110.93933,110.93933,0,0,0,706.57314,338.064a119.882,119.882,0,0,0,7.14989-15.41561c4.74115-1.72629,8.322-9.54462,8.322-18.93884a33.06945,33.06945,0,0,0-1.3381-9.49537,121.52779,121.52779,0,0,0,.88891-14.41912,120.17944,120.17944,0,0,0-39.6966-89.38228,23.44841,23.44841,0,0,0,.37522-5.87723c-1.00473-15.52708-17.58929-26.07586-33.13284-26.78142a32.8005,32.8005,0,0,0,5.53147-34.63658c-9.91113,14.43929-30.25853,15.97418-47.77168,16.08774,7.55675-2.9265,10.95734-13.39715,6.56225-20.20525-18.30375,24.53386-53.985,29.07689-75.75576,50.59371a63.8633,63.8633,0,0,0-11.77976,16.06661,120.24089,120.24089,0,0,0-45.31946,94.1347,121.55587,121.55587,0,0,0,.87233,14.28918,32.96391,32.96391,0,0,0-1.38014,9.62531c0,9.43741,3.61453,17.27988,8.38807,18.95778a119.88387,119.88387,0,0,0,7.18266,15.46665,110.91725,110.91725,0,0,0,66.54128,69.98516v33.80212c0,.26025.01449.51691.0196.77593-44.58123,6.01408-104.079,33.82817-114.39809,71.92387-8.91132,32.89854-18.42365,69.02824-23.15665,90.24078,40.56827,28.50553,125.69315,45.24341,179.04119,45.24341,50.6869,0,133.53278-15.10715,172.90663-41.06339C772.36065,585.734,762.54821,548.0178,753.24926,514.26464Z" transform="translate(-114.2798 -119)" fill="url(#bf9220ea-365d-417c-960f-9ff5535a2d22)" />
	</g>
	<path fill="#ffffff" d="M603.61048,640.72159c48.89581,0,128.8143-14.57335,166.79676-39.61233-4.11411-22.48424-13.57985-58.86769-22.55024-91.42816-11.42431-41.46766-83.52767-70.216-126.54025-70.216h-41.4486c-43.1459,0-115.35328,28.91469-126.6338,70.55985-8.5964,31.736-17.77266,66.589-22.33837,87.05194C470.03068,624.57518,552.14757,640.72159,603.61048,640.72159Z" transform="translate(-114.2798 -119)" stroke="#000000" stroke-width="2" stroke-miterlimit="10">
		<animate id="anim_6" attributeName="fill" dur="2500ms" to="#000000" begin="indefinite" fill="freeze" />
	</path>
	<path fill="#ffffff" d="M486.8,48.3c64.2,0,116.2,52,116.2,116.2s-52,116.2-116.2,116.2s-116.2-52-116.2-116.2S422.6,48.3,486.8,48.3z" stroke="#000000" stroke-width="2" stroke-miterlimit="10">
		<animate id="anim_7" attributeName="fill" dur="2500ms" to="#72351c" begin="indefinite" fill="freeze" />
	</path>
	<path fill="#ffffff" d="M459.97433,258.55269H513.087a10.683,10.683,0,0,1,10.683,10.683v48.89994a37.23927,37.23927,0,0,1-37.23927,37.23927h-.00007a37.23927,37.23927,0,0,1-37.23927-37.23927V269.23568A10.683,10.683,0,0,1,459.97433,258.55269Z" stroke="#000000" stroke-width="2" stroke-miterlimit="10">
		<animate id="anim_8" attributeName="fill" dur="2500ms" to="#fda57d" begin="indefinite" fill="freeze" />
	</path>
	<path fill="#ffffff" d="M486.8,80.9c59,0,106.8,47.8,106.8,106.8s-47.8,106.8-106.8,106.8s-106.8-47.8-106.8-106.8 S427.8,80.9,486.8,80.9z" stroke="#000000" stroke-width="2" stroke-miterlimit="10">
		<animate id="anim_9" attributeName="fill" dur="2500ms" to="#fda57d" begin="indefinite" fill="freeze" />
	</path>
	<path fill="#ffffff" d="M525.04613,208.2219s44.98982,91.32263,171.90142,38.27492L667.402,200.164,615.02578,181.3623Z" transform="translate(-114.2798 -119)" stroke="#000000" stroke-width="2" stroke-miterlimit="10">
		<animate id="anim_10" attributeName="fill" dur="2500ms" to="#72351c" begin="indefinite" fill="freeze" />
	</path>
	<path fill="#ffffff" d="M524.64663,202.0522a61.66959,61.66959,0,0,1,15.28543-24.86262c21.00146-20.75652,55.42186-25.13895,73.07881-48.80594,4.23984,6.56758.95939,16.66822-6.33032,19.49128,16.89431-.10957,36.52273-1.59016,46.08358-15.51925a31.6415,31.6415,0,0,1-5.336,33.4127c14.99426.68059,30.99283,10.85661,31.962,25.835.64565,9.97871-5.6112,19.42651-13.81131,25.14924s-18.12112,8.34985-27.88617,10.50284C609.18758,233.54021,506.04616,259.8821,524.64663,202.0522Z" transform="translate(-114.2798 -119)" stroke="#000000" stroke-width="2" stroke-miterlimit="10">
		<animate id="anim_11" attributeName="fill" dur="2500ms" to="#72351c" begin="indefinite" fill="freeze" />
	</path>
	<path fill="#ffffff" d="M707.83565,307.60241h-2.83022l-55.06218,49.01876c-53.0477-24.84513-91.99411,0-91.99411,0L500.201,309.61688l-5.82291.73165a106.75011,106.75011,0,0,0,213.45756-2.74612ZM600.92449,375.42289c-20.76778,0-37.60344-4.209-37.60344-9.40086s16.83566-9.40086,37.60344-9.40086,37.60344,4.20894,37.60344,9.40086S621.69227,375.42289,600.92449,375.42289Z" transform="translate(-114.2798 -119)" stroke="#000000" stroke-width="2" stroke-miterlimit="10">
		<animate id="anim_12" attributeName="fill" dur="2500ms" to="#72351c" begin="indefinite" fill="freeze" />
	</path>
	<path fill="#ffffff" d="M380,168.9c5.5,0,9.9,8.3,9.9,18.6s-4.4,18.6-9.9,18.6s-9.9-8.3-9.9-18.6S374.5,168.9,380,168.9z" stroke="#000000" stroke-width="2" stroke-miterlimit="10">
		<animate id="anim_13" attributeName="fill" dur="2500ms" to="#fda57d" begin="indefinite" fill="freeze" />
	</path>
	<path fill="#ffffff" d="M593.5,168.9c5.5,0,9.9,8.3,9.9,18.6s-4.4,18.6-9.9,18.6s-9.9-8.3-9.9-18.6S588.1,168.9,593.5,168.9z" stroke="#000000" stroke-width="2" stroke-miterlimit="10">
		<animate id="anim_14" attributeName="fill" dur="2500ms" to="#fda57d" begin="indefinite" fill="freeze" />
	</path>
	<g opacity="0.7">
		<path fill="url(#b4202d31-0de8-4369-b735-813ee4300deb)" d="M293.7,377.7h384.1c8,0,14.5,6.5,14.5,14.5v208.9c0,8-6.5,14.5-14.5,14.5H293.7c-8,0-14.5-6.5-14.5-14.5V392.2 C279.2,384.2,285.7,377.7,293.7,377.7z" />
	</g>
	<path fill="#ffffff" d="M313.5,382.1H658c14.8,0,26.8,12,26.8,26.8v179.8c0,14.8-12,26.8-26.8,26.8H313.5c-14.8,0-26.8-12-26.8-26.8 V408.9C286.6,394.1,298.7,382.1,313.5,382.1z" stroke="#000000" stroke-width="2" stroke-miterlimit="10">
		<animate id="anim_15" attributeName="fill" dur="2500ms" to="#535461" begin="indefinite" fill="freeze" />
	</path>
	<path fill="#ffffff" d="M485.7,485.4c7.4,0,13.5,6,13.5,13.5s-6,13.5-13.5,13.5s-13.5-6-13.5-13.5S478.3,485.4,485.7,485.4z" stroke="#000000" stroke-width="2" stroke-miterlimit="10" />
	<path fill="#ffffff" d="M41.2,648.5h889.1V662H41.2V648.5z" stroke="#000000" stroke-width="2" stroke-miterlimit="10">
		<animate id="anim_16" attributeName="fill" dur="2500ms" to="#e0e0e0" begin="indefinite" fill="freeze" />
	</path>
	<path fill="#ffffff" d="M832.8,476c-1.3,0.2-2.7,0.6-3.3,1.7c-1,1.8,0.8,3.8,2.4,5c3,2.3,6.2,4.5,8.2,7.6s2.7,7.6,0.5,10.6 c-2.9,3.9-9.9,4.8-10.5,9.7c-0.4,3.1,2.3,5.8,5,7.3c6.7,3.9,15.4,4.9,20.3,10.9c2-4.2,6.5-6.6,11-7.6s9.2-0.9,13.7-1.6 c1.5-0.2,3.1-0.7,3.8-2c1.3-2.6-2.4-5.7-1.1-8.3c1-2,3.8-1.8,5.8-2.6c3.3-1.3,4.7-5.6,3.8-9s-3.6-6.1-6.4-8.4 c-7.6-6-16.7-9.5-25.9-12c-4.3-1.2-9.3-3-13.8-3.2C841.9,473.9,837,475.3,832.8,476z">
		<animate id="anim_17" attributeName="fill" dur="2500ms" to="#eeeeee" begin="indefinite" fill="freeze" />
	</path>
</svg>
