<svg xmlns="http://www.w3.org/2000/svg" viewBox="0 0 31.33 91.41"><defs><style>.cls-1{fill:#1d262d;fill-rule:evenodd;}</style></defs><g id="Слой_2" data-name="Слой 2"><g id="OBJECTS"><path class="cls-1" d="M18.77,91.41c.44-2.3,1.54-3.48,2.17-5.48a37.92,37.92,0,0,1,0,5c.61-1,.55-2.06,1-3.65,1.54-5.28,3.1-12.81,4.26-18.18,1.72-8,4.13-16.28,5-22.7A13.9,13.9,0,0,0,31,42,66.12,66.12,0,0,1,28,48.74c-.16-.5.4-1.48.08-1.86-.41.81-.6,2.08-1.14,2.6,0-.3-.29-1.08.21-1.31,0,.19-.14.44,0,.51a12,12,0,0,0,.49-3.81C27,47,25.9,50,25.23,52.26c-.35-.31-.2-1-.32-1.46-.61,1.26-1.17,2.57-1.67,3.91,0-3.91,0-7.7-.08-11-.25-13.18-.5-27-2-37.26A30,30,0,0,0,19.32,0c.2,3.68-.19,8.34-.35,11.57-.3-.68-.12-2.44-.55-2.86-.1,1.41.13,3.43-.2,4.47-.11-.45-.63-1.5-.23-2.09,0,.31,0,.74.17.78a27,27,0,0,0-.85-6c.05,3.61.12,8.59.17,12.29-.44-.31-.51-1.39-.77-2.06-.91,11.7-.18,24.89.23,37.1.07,2,.42,4,.43,6,0,1.59-.25,3.18-.15,4.7.09,1.36.41,2.74.49,4.14A111.77,111.77,0,0,0,12,54.41c-.55-1.15-1.39-2.19-2-3.41a29,29,0,0,0-1.14-2.84c-.49-.83-1.25-1.52-1.73-2.38C5.49,42.84,4,40.46,1.46,39.55c1,2.16.84,3.79,1.51,5.81a42.36,42.36,0,0,1-3-4.12c.1,1.18.79,2,1.35,3.61,1.88,5.26,5,12.42,7.12,17.59,3.2,7.71,5.8,16,8.56,22a9.34,9.34,0,0,0,.57,1C17.46,87.78,17.65,89.77,18.77,91.41Z"/></g></g></svg>