<?xml version="1.0" encoding="utf-8"?>
<!-- Generator: Adobe Illustrator 25.1.0, SVG Export Plug-In . SVG Version: 6.00 Build 0)  -->
<svg version="1.1" id="Layer_1" xmlns="http://www.w3.org/2000/svg" xmlns:xlink="http://www.w3.org/1999/xlink" x="0px" y="0px"
	 viewBox="0 0 358.6 866.8" style="enable-background:new 0 0 358.6 866.8;" xml:space="preserve">
<style type="text/css">
	.st0{fill:none;stroke:#000000;stroke-width:2;stroke-miterlimit:10;}
	.st1{fill:none;}
	.st2{fill:#211A1F;}
	.st3{fill:#FFFFFF;}
</style>
<path class="st0" d="M221.6,785.5c0,0-14.7-137.3-18.4-149.7s-8.7-12.4-12.7-12.7c-3.9-0.3-3.9-0.2-3.9-0.2h0.1c0,0-0.1-0.1-4,0.2
	s-9,0.3-12.7,12.7s-22.4,148.8-22.4,148.8l-31.8-0.1l-13.7-175.9"/>
<path class="st0" d="M253.4,786.1"/>
<path class="st0" d="M271,562.5"/>
<path class="st0" d="M211.5,562.5"/>
<line class="st0" x1="161.7" y1="562.5" x2="211.5" y2="562.5"/>
<path class="st0" d="M211.5,562.5"/>
<path class="st0" d="M271,562.5"/>
<path class="st0" d="M267.3,609.2"/>
<path class="st0" d="M211.5,562.5h-27V623c1.5-0.1,2-0.1,2.2-0.1l0,0h0.1l0,0c0.2,0,0.8,0,3.8,0.2c3.9,0.3,9,0.3,12.7,12.7
	s18.2,148.6,18.2,148.6l32.2,0.2l13.8-175.4"/>
<line class="st0" x1="117.1" y1="291.9" x2="161.6" y2="561.6"/>
<line class="st0" x1="148.7" y1="285.9" x2="129.6" y2="289.2"/>
<line class="st0" x1="236.3" y1="289.2" x2="217.2" y2="285.9"/>
<path class="st0" d="M248.8,292.4"/>
<line class="st0" x1="211.5" y1="562.5" x2="248.8" y2="292.4"/>
<path class="st0" d="M151,562.5"/>
<line class="st0" x1="183.1" y1="289.3" x2="182.4" y2="562.5"/>
<path class="st0" d="M189.8,298"/>
<line class="st0" x1="189.8" y1="562.5" x2="189.8" y2="298"/>
<path class="st0" d="M147.9,784.9"/>
<line class="st0" x1="145.3" y1="812.4" x2="146.2" y2="802.3"/>
<line class="st0" x1="117.2" y1="802.4" x2="117.9" y2="812.3"/>
<path class="st0" d="M117.2,802.4"/>
<path class="st0" d="M145.3,812.4l-27.8-0.3c0,0-2.8,8.4-9.3,15.1c-4.8,5-12.7,6.5-27.3,7.9s-30.6,1.3-36.2,7.3s-2.1,16.5-2.1,16.5
	l103.9-1.8L145.3,812.4z"/>
<polygon class="st0" points="147.1,863.4 40.7,863.4 40.7,858.7 147.3,857 "/>
<path class="st0" d="M108.2,827.3c-4.8,5-12.7,6.5-27.3,7.9c-10.4,1-21.5,1.3-29.1,3.5c0,0,2.7,3.1,6.8,4.8c4.7,2,11.7,3.8,19.9,3.8
	s26.7-1.7,34.7-9.5c5.2-5.1,9.7-19.6,11.3-25.2"/>
<path class="st0" d="M120.3,811.4"/>
<path class="st0" d="M124.6,812.2C124.6,812.2,124.6,812.2,124.6,812.2"/>
<path class="st0" d="M72,846.5c-0.2,0-0.4-0.1-0.5-0.4l-2.2-9.5c-0.1-0.3,0.1-0.5,0.4-0.6c0.2-0.1,0.5,0.1,0.6,0.4l2.2,9.5
	C72.6,846.2,72.4,846.4,72,846.5L72,846.5z"/>
<path class="st0" d="M85,845.3c-0.2,0-0.4-0.1-0.5-0.4l-2.1-9.5c-0.1-0.3,0.1-0.5,0.4-0.6c0.2-0.1,0.5,0.1,0.6,0.4l2.1,9.5
	C85.6,845,85.4,845.2,85,845.3C85.1,845.3,85.1,845.3,85,845.3z"/>
<path class="st0" d="M98.6,843.2c-0.2,0-0.4-0.1-0.4-0.3l-3.6-9.1c-0.1-0.2,0-0.5,0.3-0.6c0.2-0.1,0.5,0,0.6,0.3l3.6,9.1
	c0.1,0.2,0,0.5-0.3,0.6C98.7,843.2,98.6,843.2,98.6,843.2z"/>
<path class="st0" d="M110.7,838.7c-0.2,0-0.3-0.1-0.4-0.2l-4.6-8.6c-0.1-0.2,0-0.5,0.2-0.6s0.5,0,0.6,0.2l4.6,8.6
	c0.1,0.2,0,0.5-0.2,0.6C110.9,838.7,110.8,838.7,110.7,838.7z"/>
<line class="st0" x1="251.9" y1="802.1" x2="251.8" y2="812.1"/>
<path class="st0" d="M251.9,802.1"/>
<path class="st0" d="M253.5,784.6"/>
<path class="st0" d="M221.5,785"/>
<line class="st0" x1="224" y1="812.2" x2="223.4" y2="802.3"/>
<path class="st0" d="M224.1,812.4l27.8-0.3c0,0,2.8,8.4,9.3,15.1c4.8,5,12.7,6.5,27.3,7.9c14.6,1.4,30.6,1.3,36.2,7.3
	s2.1,16.5,2.1,16.5l-103.9-1.8L224.1,812.4z"/>
<polygon class="st0" points="222.2,863.4 328.7,863.4 328.7,858.7 222.1,857 "/>
<path class="st0" d="M251.8,812.1c0,0,2.8,8.4,9.3,15.1c4.8,5,12.7,6.5,27.3,7.9c10.4,1,21.5,1.3,29.1,3.5c0,0-2.7,3.1-6.8,4.8
	c-4.7,2-11.7,3.8-19.9,3.8c-8.2,0-26.7-1.7-34.7-9.5c-8.9-8.7-11.4-25.6-11.4-25.6"/>
<path class="st0" d="M297.3,846.5h-0.1c-0.3-0.1-0.4-0.3-0.4-0.6l2.2-9.5c0.1-0.3,0.3-0.4,0.6-0.4c0.3,0.1,0.4,0.3,0.4,0.6l-2.2,9.5
	C297.7,846.4,297.5,846.5,297.3,846.5z"/>
<path class="st0" d="M284.3,845.3h-0.1c-0.3-0.1-0.4-0.3-0.4-0.6l2.1-9.5c0.1-0.3,0.3-0.4,0.6-0.4c0.3,0.1,0.4,0.3,0.4,0.6l-2.1,9.5
	C284.7,845.2,284.5,845.3,284.3,845.3z"/>
<path class="st0" d="M270.8,843.2c-0.1,0-0.1,0-0.2,0c-0.2-0.1-0.4-0.4-0.3-0.6l3.6-9.1c0.1-0.2,0.4-0.4,0.6-0.3
	c0.2,0.1,0.4,0.4,0.3,0.6l-3.6,9.1C271.1,843.1,270.9,843.2,270.8,843.2z"/>
<path class="st0" d="M258.6,838.7c-0.1,0-0.1,0-0.2-0.1c-0.2-0.1-0.3-0.4-0.2-0.6l4.6-8.6c0.1-0.2,0.4-0.3,0.6-0.2s0.3,0.4,0.2,0.6
	l-4.6,8.6C259,838.6,258.8,838.7,258.6,838.7z"/>
<g>
	<polygon class="st0" points="152.3,784.5 111.3,784.5 112.4,802.3 149.6,802.3 	"/>
</g>
<polyline class="st0" points="330.3,550.4 331.9,556.6 319.9,593.3 322.9,595.3 333.7,579.7 330.7,599.5 317.8,608.6 325.4,612.6 
	347,597.5 356.2,566.4 349.3,548.3 "/>
<polygon class="st0" points="324.3,508.4 330.3,550.3 349.3,548.5 345.7,505.8 "/>
<line class="st1" x1="345.6" y1="504.6" x2="324.2" y2="507.6"/>
<polyline class="st0" points="182.4,290.2 171.6,304.1 147.6,285.9 150.1,275.5 "/>
<polyline class="st0" points="183.1,286.9 183.1,289.1 182.4,290.2 "/>
<polyline class="st0" points="183.1,286.9 183.1,289.1 194.5,304.1 218.5,285.9 216.1,275.4 "/>
<path class="st0" d="M139.9,131.4c0,0,9-1.6,14.5-3.3s10.5-3.5,10.5-3.5l-0.5,9c0,0-4.8,1.4-11.2,1.9s-12.4,0-12.4,0L139.9,131.4z"
	/>
<path class="st0" d="M182.8,233.3c0,0,11.6,0.5,28.6-4.5s24.6-16.5,30.7-31.4c6.1-14.8,6.9-26.4,6.9-26.4s3.9,22.4,4.1,44.4
	c0.3,25.9-7,44-34,58.4c-19.1,10.2-33.2,13.1-36.2,13.1"/>
<path class="st0" d="M183,286.9c-3,0-17.1-2.9-36.2-13.1c-27-14.4-34.3-32.5-34-58.4c0.2-22,4-42.6,4-42.6s1,9.9,7.1,24.7
	s13.7,26.4,30.7,31.4s28.5,4.5,28.5,4.5"/>
<path class="st0" d="M138.5,63.4c0,0-18.1,7.6-25.6,29.6s2.7,62.1,2.7,62.1s3.1-0.7,4.4-13.5c1.2-12.8,1.5-23.8,13-34.1
	s14-14,15.9-20.1"/>
<path class="st0" d="M239.9,78.2c0,0,9.7-2.9,16.6,19.3c8.7,28.1-6.6,57.6-6.6,57.6s-4.3-2.7-3.7-15.7c0.6-12.8-4.4-27.2-10.7-35.3
	c-8.7-11.3-10.8-7-16-12.7"/>
<path class="st0" d="M228.5,132.7c0,0-7.5-1.7-14.3-4.2c-6.7-2.5-10.2-4.4-10.2-4.4l-0.6,9.3c0,0,8.6,2.2,15.5,2.9
	c6.9,0.8,8.3,0.4,8.3,0.4L228.5,132.7z"/>
<line class="st0" x1="115.4" y1="155.4" x2="115" y2="152.8"/>
<path class="st0" d="M183,200.8c0,0-5.1-6.1-13.9-4.4c-10.5,2-13.3,11.3-20.6,12.7c-7.8,1.6-10-3.5-9.5-7.4c0.5-3.2,2.3-3.8,2.3-3.8
	s-4.3,1.3-3.9,8.4c0.5,9.9,13.4,21.6,29.4,17C185.5,218,183,200.8,183,200.8z"/>
<path class="st0" d="M182.9,200.7c0,0,5.1-6.1,14-4.4c10.5,2,13.3,11.3,20.6,12.7c7.8,1.6,10-3.5,9.5-7.4c-0.5-3.2-2.3-3.8-2.3-3.8
	s4.3,1.3,3.9,8.4c-0.5,9.9-13.4,21.6-29.4,17C180.4,217.9,182.9,200.7,182.9,200.7z"/>
<path class="st0" d="M183.2,224c-4.1,0-6.3-2.9-6.3-3c-0.5-0.6-0.3-1.5,0.3-2s1.5-0.3,2,0.3c0.1,0.1,1.5,1.9,4.1,1.9
	s3.7-1.6,3.7-1.6c0.4-0.6,1.3-0.8,1.9-0.4c0.6,0.4,0.8,1.3,0.4,1.9C189.2,221.2,187.4,224,183.2,224z"/>
<path class="st0" d="M166.8,230.1c0,0,7.3-3.5,15.4-3.5c8,0,15.2,4.1,15.2,4.1s-10.4,3-17,2.5C173.7,232.8,166.8,230.1,166.8,230.1z
	"/>
<path class="st2" d="M219.1,159.8c0,3.9-2.1,7.1-4.6,7.1s-4.6-3.2-4.6-7.1c0-3.9,2.1-7.1,4.6-7.1
	C217.1,152.7,219.1,155.8,219.1,159.8z"/>
<path class="st3" d="M215.4,157.7c0,0.9-0.8,1.6-1.7,1.6c-1,0-1.7-0.7-1.7-1.6c0-0.9,0.8-1.6,1.7-1.6
	C214.6,156.1,215.4,156.9,215.4,157.7z"/>
<path class="st2" d="M156.1,159.8c0,3.9-2.1,7.1-4.6,7.1s-4.6-3.2-4.6-7.1c0-3.9,2.1-7.1,4.6-7.1
	C154.1,152.7,156.1,155.8,156.1,159.8z"/>
<path class="st3" d="M152.4,157.7c0,0.9-0.8,1.6-1.7,1.6c-1,0-1.7-0.7-1.7-1.6c0-0.9,0.8-1.6,1.7-1.6
	C151.6,156.1,152.4,156.9,152.4,157.7z"/>
<path class="st0" d="M178.5,154.1h8.7c0.4,0,2.8,14.3,5.9,19.4c3.6,5.9,9.1,8.4,17.1,9.1c9.2,0.8,17.9,0,23.3-5.2
	c7.8-7.5,6.9-20.4,7.7-23.9c0.7-3.5,3.5-3.7,3.5-3.7s0-2-0.3-4.5c-0.3-2.6-0.7-4.1-0.7-4.1s-1.3,0.1-3.8-0.2
	c-3.4-0.4-6.7-0.9-16.6-1.8c-11.4-1.1-18,0.2-24.1,2.8c-4.9,2.1-10.3,6.9-10.3,6.9s-0.5,0.4-1.2,0.6c-0.8,0.2-4.4,0.2-4.4,0.2
	 M237,155.6c-0.9,7.2-2,17.4-10.4,21.4c-6.3,3-22.6,3.6-28.7-2.8c-5.3-5.5-6.2-19.1-6.2-19.1s-0.4-2,0.1-3.5c0.5-1.6,1.2-3.2,7-6.4
	c6.7-3.6,18.7-4.2,26.4-3C233.8,143.6,237.8,148.4,237,155.6z"/>
<path class="st0" d="M183.2,149.7c0,0-4.2,0-5-0.2s-1.2-0.6-1.2-0.6s-5.4-4.8-10.3-6.9c-6.1-2.6-12.7-3.9-24.1-2.8
	c-9.9,0.9-13.2,1.5-16.6,1.8c-2.5,0.3-3.8,0.2-3.8,0.2s-0.5,1.5-0.7,4.1c-0.3,2.4-0.3,4.5-0.3,4.5s2.8,0.2,3.5,3.7
	s-0.1,16.5,7.7,23.9c5.4,5.1,14.1,6,23.3,5.2c8-0.7,13.5-3.2,17.1-9.1c3.1-5.1,5.4-19.4,5.8-19.4 M140.6,142.3
	c7.7-1.2,19.6-0.6,26.4,3c5.9,3.1,6.5,4.8,7,6.4c0.5,1.6,0.1,3.5,0.1,3.5s-0.9,13.5-6.2,19.1c-6.2,6.4-22.5,5.8-28.7,2.8
	c-8.3-4-9.5-14.2-10.4-21.4C127.9,148.4,132,143.6,140.6,142.3z"/>
<path class="st0" d="M148.9,87.4c0,16.6,33.2,14.7,66.3,5.9s42.3-43.7,35.7-63C244.4,11,222.7,4.5,222.7,4.5"/>
<path class="st0" d="M161.7,562.5c1.3,27-1,42.8-21.7,45.2c-15.7,1.8-31.1,1.3-37.8,0.9"/>
<path class="st0" d="M134.1,288.4c0.8,7.2,26.2,246,27.5,273.2c0,0.3,0,0.6,0,1"/>
<line class="st0" x1="117.1" y1="291.8" x2="130.5" y2="289"/>
<path class="st0" d="M102.1,608.6c-2.2-0.1-3.5-0.2-3.5-0.2L68.4,302l48.8-10.2"/>
<path class="st0" d="M228.8,287.9c-1,13.4-21.7,285.7-16.8,303.3c5,18.1,21.2,16.2,37.4,17.5c16.2,1.2,23.1,0,23.1,0L295,303.6
	l-46.2-11.3"/>
<path class="st0" d="M236.2,289.2"/>
<line class="st0" x1="248.8" y1="292.3" x2="236.2" y2="289.2"/>
<path class="st0" d="M295,303.6"/>
<path class="st0" d="M285.7,373.5"/>
<path class="st0" d="M285.7,373.5"/>
<path class="st0" d="M295.2,303.3c0,0,26.7,62.1,37.9,113.8c11.2,51.8,12.3,72.2,12.3,72.2l-26.1,2.1c0,0-11.2-60-20.6-86.8
	c-4.2-12.1-7.3-19.6-9.4-24.2"/>
<polygon class="st0" points="315.6,491.9 349.5,489.1 350.9,505.1 319.1,508.7 "/>
<polyline class="st0" points="32.7,549.4 31.1,555.7 43.1,592.4 40.1,594.4 29.3,578.8 32.3,598.5 45.2,607.7 37.6,611.6 16,596.6 
	6.8,565.4 13.8,547.2 "/>
<path class="st0" d="M13.4,546.8"/>
<polygon class="st0" points="38.8,507.2 32.7,549.4 13.7,547.6 17.3,504.8 "/>
<polyline class="st1" points="33.2,545.6 32.7,549.4 13.7,547.6 14,543.9 "/>
<path class="st0" d="M68.4,302.1"/>
<path class="st0" d="M67.7,302.1c0-0.3-26.4,61.5-37.8,114.1c-11.3,51.8-12.5,72.3-12.5,72.3l26.2,2c0,0,11.3-59.9,20.6-86.8
	c9.4-26.8,11.3-27.9,11.3-27.9"/>
<polygon class="st0" points="47.4,490.9 13.5,488.2 12.1,504.2 43.9,507.7 "/>
<polygon class="st0" points="217.2,784.5 258.2,784.5 257.1,802.3 219.9,802.3 "/>
<path class="st0" d="M115.5,155.1c-2.3,0-4.1,1.2-4.1,2.6v12.2c0,1.5,1.9,2.6,4.1,2.6c0.5,0,0.7,0,1.1-0.1
	C116,167,115.7,161.1,115.5,155.1z"/>
<path class="st0" d="M249.9,155.1c2.3,0,4.1,1.2,4.1,2.6v12.2c0,1.5-1.9,2.6-4.1,2.6c-0.5,0-0.4-0.1-0.9-0.2
	C249.7,166.9,249.7,161.1,249.9,155.1z"/>
<path class="st0" d="M191.9,188.5c-1-4.3-6.7-28.4-6.7-28.4h-1.6h-0.7h-1.6c0,0-5.7,24.1-6.7,28.4c-1,4.3-0.5,4.6,4.2,4.6
	c1.2,0,2.1,0,2.9,0c0,0,0.9,0,3.3,0c0.8,0,1.8,0,2.9,0C192.4,193.2,193,192.8,191.9,188.5z"/>
<path class="st0" d="M138,64.4c0,0,0.1-26.4,28.8-39.4c22.4-10.1,43.5-7.2,50.8-12.3c5.2-3.6,4.4-9.1,4.4-9.1"/>
</svg>
