<?xml version="1.0" encoding="utf-8"?>
<!-- Generator: Adobe Illustrator 25.1.0, SVG Export Plug-In . SVG Version: 6.00 Build 0)  -->
<svg version="1.1" id="a2942aa7-bf0d-42c0-bc52-bf4c952347c5"
	 xmlns="http://www.w3.org/2000/svg" xmlns:xlink="http://www.w3.org/1999/xlink" x="0px" y="0px" viewBox="0 0 971.4 662" xml:space="preserve">
<rect x="33.8" y="31.6" width="583.3" height="630.2"/>
<path d="M440.6,160.7H186.4c-5.2,0-9.4-4.1-9.4-9.4s4.1-9.4,9.4-9.4h254.2c5.2,0,9.4,4.1,9.4,9.4
	S445.8,160.7,440.6,160.7z"/>
<path d="M361.6,257H186.4c-5.2,0-9.4-4.1-9.4-9.4c0-5.2,4.1-9.4,9.4-9.4h175.3c5.2,0,9.4,4.1,9.4,9.4
	C371,252.9,366.9,257,361.6,257z"/>
<path d="M265.3,353.4h-78.9c-5.2,0-9.4-4.1-9.4-9.4c0-5.2,4.1-9.4,9.4-9.4l0,0h78.9c5.2,0,9.4,4.1,9.4,9.4
	C274.7,349.2,270.5,353.4,265.3,353.4z"/>
<path d="M464.7,449.7H186.4c-5.2,0-9.4-4.1-9.4-9.4c0-5.2,4.1-9.4,9.4-9.4h278.3c5.2,0,9.4,4.1,9.4,9.4
	C474,445.6,469.9,449.7,464.7,449.7z"/>
<path d="M403.1,546H186.4c-5.2,0-9.4-4.1-9.4-9.4c0-5.2,4.1-9.4,9.4-9.4h216.7c5.2,0,9.4,4.1,9.4,9.4
	C412.5,541.9,408.3,546,403.1,546z"/>
<path d="M867.5,333.3v14.4c0,0,8,53.4,8,100.1c0,46.7-12.8,155.3-12.8,155.3s-25.8,9.2-27.6-5
	c-1.9-14.2-6.7-89-6.7-100.1c0-11.1-21.5-95.1-21.5-95.1l-13.5,93.3c0,0,4.3,110.5,0,113.6c-4.3,3.1-25.2,8.6-27.6,3.1
	c-2.4-5.5-15.5-124-15.5-124s-6.8-101.4-6.2-144.9"/>
<path d="M749,320.7c1.6-2.3,3.1-4.4,4.4-6.3"/>
<path d="M749,320.7"/>
<path d="M746,325"/>
<path d="M860.1,604l0.9,5.5c0.5,3.5,0.8,6.8,1.1,10.3c0.3,5.1,1.1,12.7,3.9,14c4.3,1.9,32.2,25.4,12.6,26.6
	c-19.7,1.2-29.4,3.3-35.3-1.2c-6.8-5.4,0.9-2.9-2.1-2.9s-6.7,0-8-5c-1.2-5,1.9-13.5,1.9-13.5v-38.4h0.4"/>
<path d="M765.7,612.9c-0.3,2.1-0.4,4.1-0.5,6.3c-0.3,5.1-1.1,12.7-3.9,14c-4.3,1.9-32.2,25.4-12.6,26.6
	c19.7,1.2,29.4,3.3,35.3-1.2c6.8-5.4-0.9-2.9,2.1-2.9s6.7,0,8-5c1.2-5-1.9-13.5-1.9-13.5v-26.8"/>
<path d="M754.2,82.7c-0.1-1.1-0.4-2-0.5-2.9"/>
<path d="M789.4,57.7c1.5,3.2,3.3,7,5.4,10.3"/>
<path d="M823.1,331.2c-10.3,10.4-22.1,8.2-28.1,4.8c-5.1-2.8-21.8-9.5-30-14.4"/>
<path d="M768.8,107.1l12.3,10.4l5-4.3"/>
<path d="M789.9,55.8c-3.5,13.9-16.1,24.4-31,24.4c-15.8,0-28.9-11.5-31.6-26.6"/>
<path d="M895.1,285.3c2.9,22.1,3.3,42.8-9.1,37.9c-2.3-0.9-4.1-1.9-5.9-3.1"/>
<path d="M831.9,94.5c16.7,3.1,36.1,8.4,39.1,15.4"/>
<path d="M832.6,300.9c-1.5-6.4-5.5-14.6-12.8-25.2c-14-20.2-28.6-119.2-23.9-149.3"/>
<path d="M848.1,319.4c-4.3,3.5-6.3,2.5-6.3,2.5s-11.6,19-15.4,17.1c-3.7-1.9-6.2-15.9,1.9-22.7
	c4.1-3.6,5.9-8.4,4.3-15.4"/>
<polyline points="862.7,330.8 857.1,336 844.2,327.4 847.7,319.1 "/>
<path d="M741.5,109.6c-10.7,5.6-23.8,13.6-27.4,22.1"/>
<path d="M750,318.3c4,3.1,6.7,7.1,7.2,11.9c0.9,10.4-7.1,23.8-6.4,26.1c1.2,4.3,8.6,10.4,8,7.4
	c-0.7-3.1,5-47.2,13.5-66.9c8.6-19.7-3.7-151.6-6.2-168.8c-0.3-2.5-0.7-5-1.2-7.5"/>
<line x1="749.1" y1="320.3" x2="749" y2="319.8"/>
<polyline points="744.1,344 747.2,351.4 755.5,334.5 749.1,320.3 "/>
<line x1="738.8" y1="331.6" x2="744.1" y2="344"/>
<path d="M794.9,67.9c0,0,10,4.1,16.2,4.1s31.3,12.8,22.7,20.9c-8.6,8-21.5,9.8-27.6,21.5c-6.2,11.6-9.2,13.5-9.2,13.5
	l-11-14.7c0,0,15.3-17.3,14.6-22.7C799.9,85,794.9,67.9,794.9,67.9"/>
<path d="M765,120.4c0.8,0.4,1.3,0.7,1.9,0.8c4.3,1.9,12.3-5.2,12.3-5.2s-10.7-6.2-10.7-10.4s-14.3-22.9-14.3-22.9
	s-7.5,2.9-9.4,7.8s-13.5,14.2-8.6,16.6C740.7,109.2,758.5,117.4,765,120.4"/>
<path d="M740.3,233.8c0.1-0.4,0.4-0.7,0.5-1.1"/>
<path d="M715.2,131.4l-1.2,0.3c0,0-20.2,90.8-14.2,113.6c6.2,22.7,35.1,90.8,35.1,90.8l18.5-21.5c0,0-8-48.8-12.6-52
	c-4.5-3.2-1.5-9.9-1.5-11.8s1.9-0.7-2.4-5c-1.7-1.7,0.4-6.4,3.3-12"/>
<path d="M848.4,319.8c-0.3-0.1-0.4-0.4-0.7-0.5"/>
<path d="M880.1,320.1c-4.1,8.7-7.8,14.3-10,14c-5.2-0.8-15.8-9-21.7-14.3"/>
<path d="M870.6,109.5c0,0,23.9,17.1,28.9,42.4s23.9,75.5,11.6,97.5c-8.6,15.4-21.5,50.8-31,70.6"/>
<path d="M847.7,319.1c-2-1.9-3.3-3.5-3.5-4c-0.7-2.4,32-58.9,27-63.3c-5-4.3-3.7-15.4,0-17.8c3.7-2.4,8-14.2,5-13.5"/>
<path d="M785.6,49.5c2.3,4.3,5.8,8,5.8,8l3.2-5.5c0-0.1,4.8-24.6-11-32.8l6-2.1c0,0-12.6-12.6-30-11.4l5-5
	c0,0-11.9-4.4-22.9,7.1c-5.8,6-12.3,13.1-16.5,21h-6.4l2.7,5.4l-9.4,5.4l9.6-0.9c-0.9,4.7-0.5,9.4,0.9,13.9l2.1,6
	c0,0,8.7-17.4,8.7-19.5v5.5c0,0,6-5,6-8.2l3.2,3.7l1.6-6l20.2,6l-3.2-5l12.6,1.6l-5-6c0,0,6.6,3.2,11,7.2"/>
<path d="M779.7,38.2c0.8-0.8,1.6-1.2,2.7-1.2c2.5,0,4.7,3.3,4.7,7.4c0,2-0.5,3.9-1.3,5.2"/>
</svg>
