<svg class="max-w-full max-h-full" id="skillssvg" version="1.1" x="0px" y="0px" viewBox="0 0 971.4 666.2" height="100%">
	<rect fill="#3F3D56" stroke="#FFFFFF" stroke-width="2" stroke-miterlimit="10" id="board" x="33.8" y="31.6" width="583.3" height="630.2" />
	<path fill="#000000" stroke="#FFFFFF" stroke-width="2" stroke-miterlimit="10" id="bar" d="M440.6,160.7H186.4c-5.2,0-9.4-4.1-9.4-9.4s4.1-9.4,9.4-9.4h254.2c5.2,0,9.4,4.1,9.4,9.4
	S445.8,160.7,440.6,160.7z" />
	<path fill="#000000" stroke="#FFFFFF" stroke-width="2" stroke-miterlimit="10" id="bar_1_" d="M361.6,257H186.4c-5.2,0-9.4-4.1-9.4-9.4c0-5.2,4.1-9.4,9.4-9.4h175.3c5.2,0,9.4,4.1,9.4,9.4
	C371,252.9,366.9,257,361.6,257z" />
	<path fill="#000000" stroke="#FFFFFF" stroke-width="2" stroke-miterlimit="10" id="bar_2_" d="M265.3,353.4h-78.9c-5.2,0-9.4-4.1-9.4-9.4c0-5.2,4.1-9.4,9.4-9.4l0,0h78.9c5.2,0,9.4,4.1,9.4,9.4
	C274.7,349.2,270.5,353.4,265.3,353.4z" />
	<path fill="#000000" stroke="#FFFFFF" stroke-width="2" stroke-miterlimit="10" id="bar_3_" d="M464.7,449.7H186.4c-5.2,0-9.4-4.1-9.4-9.4c0-5.2,4.1-9.4,9.4-9.4h278.3c5.2,0,9.4,4.1,9.4,9.4
	C474,445.6,469.9,449.7,464.7,449.7z" />
	<path fill="#000000" stroke="#FFFFFF" stroke-width="2" stroke-miterlimit="10" id="bar_4_" d="M403.1,546H186.4c-5.2,0-9.4-4.1-9.4-9.4c0-5.2,4.1-9.4,9.4-9.4h216.7c5.2,0,9.4,4.1,9.4,9.4
	C412.5,541.9,408.3,546,403.1,546z" />
	<path fill="#2F2E41" stroke="#FFFFFF" stroke-width="2" stroke-miterlimit="10" id="leftShoe" d="M860.2,603.9l0.8,5.6c0.5,3.5,0.8,6.8,1.1,10.3c0.3,5.1,1.1,12.7,3.9,14
	c4.3,1.9,32.2,25.4,12.6,26.6c-19.7,1.2-29.4,3.3-35.3-1.2c-6.8-5.4,0.9-2.9-2.1-2.9s-6.7,0-8-5c-1.2-5,1.9-13.5,1.9-13.5v-39.7
	 M835.1,598.1c1.5,11.4,18.5,7.7,25.1,5.8" />
	<path fill="#2F2E41" stroke="#FFFFFF" stroke-width="2" stroke-miterlimit="10" id="rightShoe" d="M792.2,610.5c-6.1,3.1-24.2,7.5-26.4,2.4c-0.3,2.1-0.5,4.1-0.6,6.3c-0.3,5.1-1.1,12.7-3.9,14
	c-4.3,1.9-32.2,25.4-12.6,26.6c19.7,1.2,29.4,3.3,35.3-1.2c6.8-5.4-0.9-2.9,2.1-2.9s6.7,0,8-5c1.2-5-1.9-13.5-1.9-13.5L792.2,610.5z
	" />
	<path fill="#2F2E41" stroke="#FFFFFF" stroke-width="2" stroke-miterlimit="10" id="legs" d="M765,321.6c-4.2,19.3-6.7,39.9-6.2,42c0.6,3-10.8-2-12-6.3c-0.9-1.6-0.6-3.7,0.4-6.1l0,0l-3.1-7.2
	l0,0c-0.6,43.5,6.2,144.9,6.2,144.9s13.1,118.5,15.5,124s23.3,0,27.6-3.1s0-113.6,0-113.6l13.5-93.3c0,0,21.5,84,21.5,95.1
	s4.8,85.9,6.7,100.1c1.8,14.2,27.6,5,27.6,5s12.8-108.6,12.8-155.3s-6.9-100.4-6.9-100.4l-1.1-13.9c-8-3.4-21.3-15.8-21.3-15.8
	s-14.8,25-18.6,23.1c-1.9-1-3.5-5.3-3.5-10.1C813.8,341,801,339.4,795,336C789.9,333.2,773.2,326.5,765,321.6" />
	<path fill="#FFB9B9" stroke="#FFFFFF" stroke-width="2" stroke-miterlimit="10" id="leftArm" d="M862.7,330.8c-5.2-3.3-11.2-8.3-15-11.7l-3.5,8.3l12.9,8.6L862.7,330.8" />
	<path fill="#FFB9B9" stroke="#FFFFFF" stroke-width="2" stroke-miterlimit="10" id="righArm" d="M738.8,331.6l8.4,19.6c1.9-4.7,6.3-10.5,8.6-15.9l-6.9-15.5L738.8,331.6" />
	<path fill="#575A89" stroke="#FFFFFF" stroke-width="2" stroke-miterlimit="10" id="leftJacket" d="M879.3,321.6c18.7,12.9,18.7-8.2,15.1-34.9 M876.2,220.5c3-0.7-1.3,11.1-5,13.5s-5,13.5,0,17.8
	c5,4.4-27.7,60.9-27,63.3c0.2,0.5,1.5,2.1,3.5,4c5.9,5.3,17,14.3,22.2,15.1c2.2,0.3,6.1-5.5,10.2-14.2c9.5-19.8,22.4-55.2,31-70.6
	c12.3-22-6.6-72.2-11.6-97.5s-28.5-42-28.5-42c-3-7-22.4-12.3-39.1-15.4c-8.5,6.7-20,9-25.7,19.9c-6.2,11.6-9.2,13.5-9.2,13.5
	c-4.7,30.1,9.9,129.1,23.9,149.3c7.3,10.6,11.3,18.8,12.8,25.2c1.6,7-0.1,12-4.2,15.6c-8.1,6.8-5.6,20.8-1.9,22.7
	c3.8,1.9,18.6-23.1,18.6-23.1s16.3,15.2,23.6,16.6" />
	<path fill="#575A89" stroke="#FFFFFF" stroke-width="2" stroke-miterlimit="10" id="rightJacket" d="M750.1,318.3c4,3.1,6.6,7,7.1,11.8c-0.8,9.1-13.7,21.3-10.5,27.2c1.2,4.3,12.6,9.3,12,6.3
	c-0.7-3.1,5-47.2,13.5-66.9c8.6-19.7-3.7-151.6-6.2-168.8c-0.3-2.5-0.6-5.1-1.1-7.6c-4.9-2.3-16.3-7.5-23.5-10.8
	c-10.7,5.6-23.9,13.6-27.5,22.1c0,0-20.2,90.8-14.2,113.6c6.2,22.7,35.1,90.8,35.1,90.8l18.5-21.5c1.3-0.1,3-51.1-10.2-53.5
	c0.7-5.7,1.1-13.3-3.2-17.6c1.7-2.7,2.1-5.5,0.2-9.6" />
	<path fill="#000000" stroke="#FFFFFF" stroke-width="2" stroke-miterlimit="10" id="chest" d="M765,120.4c0.8,0.4,1.3,0.7,1.9,0.8c4.3,1.9,12.3-5.2,12.3-5.2v-0.1l6.8-2.8l0,0.1l0,0l11,14.7
	c-4.7,30.1,9.9,129.1,23.9,149.3c7.3,10.6,11.3,18.8,12.8,25.2c1.6,7-0.1,12-4.2,15.6c-3.9,3.3-5.3,8.2-5.4,12.7l0,0
	C813.8,341,801,339.4,795,336c-5.1-2.8-21.8-9.5-30-14.4l-0.1,0c2.1-9.4,4.5-18.4,7.3-24.9c8.6-19.7-3.7-151.6-6.2-168.8
	c-0.3-2.5-0.6-5.1-1.1-7.6" />
	<path fill="#000000" stroke="#FFFFFF" stroke-width="2" stroke-miterlimit="10" id="rightUp" d="M754.2,82.7c0,0-7.5,2.9-9.4,7.8s-13.5,14.2-8.6,16.6c4.5,2.1,22.3,10.3,28.8,13.3
	c0.8,0.4,1.3,0.7,1.9,0.8c4.3,1.9,12.3-5.2,12.3-5.2s-10.7-6.2-10.7-10.4S754.2,82.7,754.2,82.7z" />
	<path fill="#000000" stroke="#FFFFFF" stroke-width="2" stroke-miterlimit="10" id="leftUp" d="M794.9,67.9c0,0,5,17.1,5.7,22.6c0.7,5.4-14.6,22.7-14.6,22.7l0,0l11,14.7c0,0,3-1.9,9.2-13.5
	c6.1-11.7,19-13.5,27.6-21.5c8.6-8.1-16.5-20.9-22.7-20.9S794.9,67.9,794.9,67.9" />
	<path fill="#FFB9B9" stroke="#FFFFFF" stroke-width="2" stroke-miterlimit="10" id="neck" d="M794.9,67.9c-2.1-3.3-4.2-6.7-5.7-9.9C785,70.8,773.1,80.3,759,80.3c-1.8,0-3.6-0.2-5.3-0.5
	c0.1,0.9,0.4,1.7,0.5,2.8c0,0,14.3,18.7,14.3,22.9s10.7,10.4,10.7,10.4l6.8-2.8 M786,113.2c0,0,15.3-17.3,14.6-22.7
	c-0.7-5.5-5.7-22.6-5.7-22.6" />
	<path fill="#FFB9B9" stroke="#FFFFFF" stroke-width="2" stroke-miterlimit="10" id="face" d="M753.7,79.9c-13.4-2.3-24.1-13.1-26.5-26.4c2.6-5.3,6.2-13,6.2-14.4v5.5c0,0,6-5,6-8.2l3.2,3.7l1.6-6
	l20.2,6l-3.2-5l12.6,1.6l-5-6c0,0,6.6,3.2,11,7.2c0.8-0.8,1.5-0.9,2.6-0.9c2.5,0,4.7,3.3,4.7,7.4c0,2-0.7,3.8-1.5,5.1
	c1.3,2.5,3,4.7,4.3,6.2c-0.2,0.8-0.4,1.6-0.7,2.3 M789.2,58C785,70.8,773.1,80.3,759,80.3c-1.8,0-3.6-0.2-5.3-0.5" />
	<path fill="#2F2E41" stroke="#FFFFFF" stroke-width="2" stroke-miterlimit="10" id="hair" d="M789.9,55.7c-1.2-1.5-2.9-3.8-4.3-6.2c0.8-1.3,1.5-3.1,1.5-5.1c0-4.1-2.2-7.4-4.7-7.4
	c-1.1,0-1.8,0.1-2.6,0.9c-4.4-4-11-7.2-11-7.2l5,6l-12.6-1.6l3.2,5l-20.2-6l-1.6,6l-3.2-3.7c0,3.2-6,8.2-6,8.2v-5.5
	c0,1.4-3.6,9.1-6.2,14.4 M727.2,53.5c-1.4,2.9-2.5,5.1-2.5,5.1l-2.1-6c-1.4-4.5-1.8-9.2-0.9-13.9l-9.6,0.9l9.4-5.4l-2.7-5.4h6.4
	c4.2-7.9,10.7-15,16.5-21c11-11.5,22.9-7.1,22.9-7.1l-5,5c17.4-1.2,30,11.4,30,11.4l-6,2.1c15.8,8.2,11,32.7,11,32.8l-3.2,5.5
	c0,0-0.6-0.7-1.5-1.8" />
</svg>
