<svg xmlns="http://www.w3.org/2000/svg" viewBox="0 0 36.86 98.92">
    <g>
        <path
            d="M2.82,9.8c.85.53,1.67,1,2.49,1.46l.42.26a7.68,7.68,0,0,1-.33-1.36c0-.16,0-.32,0-.49-.92-.8-1.87-1.57-2.83-2.32a15.44,15.44,0,0,1,1.57.8c.42.28.84.58,1.27.89A6.66,6.66,0,0,0,5.33,7.7C4.72,4.93,4,2.78,4.64.34A13.9,13.9,0,0,0,6.41,2.55,10.42,10.42,0,0,1,8.09,4.72a10.18,10.18,0,0,0-.46-2.41c-.13-.39-.25-.78-.38-1.16S7,.39,6.81,0c.92.73,1.2,1.77,2,3.21a25.11,25.11,0,0,1,1.93,4.56c3.17,2.44,7.14,5.88,10.16,8.23,4.72,3.76,10.18,6.86,13.93,9.85a9.38,9.38,0,0,1,2,2.74,42.3,42.3,0,0,0-5.24-1.68c.15.4,1,.56,1,1-.68-.16-1.44-.77-2-.68.14.19.36.85.8.62-.12-.09-.32-.16-.26-.31a7.25,7.25,0,0,1,2.26,1.87c-1.58-.72-3.78-1.68-5.34-2.55-.08.44.35.74.51,1.11a29.59,29.59,0,0,1-9.24-4.91c1,1.41,1.9,2.88,2.75,4.4a60,60,0,0,1,4.34,9.7c.29.81.51,1.63.76,2.44.12.4.24.8.35,1.2s.2.8.29,1.2c.19.8.38,1.58.54,2.35s.26,1.53.39,2.27a58.49,58.49,0,0,1-2,26.56,56.67,56.67,0,0,1-5,11.46,48.64,48.64,0,0,1-6.7,9,27.64,27.64,0,0,1-7.12,5.25c.87-.84,1.8-1.73,2.67-2.72a39.3,39.3,0,0,0,2.48-3.11l1.13-1.6c.36-.54.68-1.08,1-1.61s.64-1,.93-1.52l.79-1.44a10.12,10.12,0,0,0-1.22,1.56c-.46.59-.9,1.13-1.24,1.24,1-1.53,2.49-3.63,2.84-5-.35.47-1.52,1.34-1.55,2.18.23-.32.5-.81.66-.76a31.08,31.08,0,0,1-2,2.79c-.44.53-.89,1.1-1.4,1.61A18.19,18.19,0,0,1,11.42,92a57.75,57.75,0,0,0,8-13.21c-.52.21-1.19,1.39-1.77,2A69.87,69.87,0,0,0,22.69,59a55.27,55.27,0,0,0-3.25-22.43,49.43,49.43,0,0,0-2.81-6.83A23.15,23.15,0,0,0,15,27.27c-.58-.79-1.09-1.6-1.62-2.37-.38-.58-.72-1.21-1.08-1.83-.06,1.38-.14,2.75-.27,4.1-.09,1-.2,1.95-.32,2.93s-.29,2-.48,3a24.37,24.37,0,0,1-1.85,5.7A13.55,13.55,0,0,1,6,43.41a6.7,6.7,0,0,1-4.51,1.44A7.71,7.71,0,0,0,4.31,42.4a11.71,11.71,0,0,0,1.54-3c-.42.22-.76,1.2-1.25,1.17.33-.74,1-1.65.93-2.35-.18.2-.88.47-.66,1,.1-.13.18-.36.33-.31a4.65,4.65,0,0,1-2.34,2.24,14.35,14.35,0,0,0,2.78-5.75c-.46,0-.67.57-1,.82.39-3.06.57-6.3.85-9.89A98.66,98.66,0,0,0,6,15.92c0-.26,0-.52,0-.78a57.23,57.23,0,0,1-6-7C1,8.77,1.93,9.31,2.82,9.8Z"/>
    </g>
</svg>