<svg version="1.1" id="expsvg" xmlns="http://www.w3.org/2000/svg" xmlns:xlink="http://www.w3.org/1999/xlink" x="0px" y="0px" viewBox="0 0 963.5 774.4" style="enable-background:new 0 0 963.5 774.4;" xml:space="preserve">
	<polygon id="checkbox_2_" fill="#3F3D56" stroke="#000000" stroke-miterlimit="10" points="600.3,571.4 538.8,571.4 538.8,509.9 580.5,509.9 580.5,511.4 540.3,511.4 540.3,570 598.8,570 598.8,540.7 600.3,540.7 " />
	<polyline id="checkbox_1_" fill="#3F3D56" stroke="#000000" stroke-miterlimit="10" points="600.3,374.8 600.3,397.9 538.8,397.9 538.8,336.4 580.5,336.4 580.5,337.9 540.3,337.9 540.3,396.5 598.8,396.5 598.8,375.7 " />
	<polygon id="checkbox" fill="#3F3D56" stroke="#000000" stroke-miterlimit="10" points="600.3,223.7 538.8,223.7 538.8,162.2 580.5,162.2 580.5,163.6 540.3,163.6 540.3,222.2 598.8,222.2 598.8,192.9 600.3,192.9 " />
	<path id="check_2_" fill="#6C63FF" stroke="#000000" stroke-miterlimit="10" d="M561.3,534.5l-4.3,4.3l12.6,16.6l46-46.1l-4.1-4.1l-41.2,41.2L561.3,534.5l9,11.9" />
	<path id="check_1_" fill="#6C63FF" stroke="#000000" stroke-miterlimit="10" d="M560.9,361l-4.3,4.3l12.6,16.6l46-46.1l-4.1-4.1l-41.2,41.2L560.9,361l9,11.9" />
	<path id="check" fill="#6C63FF" stroke="#000000" stroke-miterlimit="10" d="M560.9,186.7l-4.3,4.3l12.6,16.6l46-46.1l-4.1-4.1l-41.2,41.2L560.9,186.7l9,11.9" />
	<g id="project_2_">
		<polygon id="flag_2_" fill="#6C63FF" stroke="#000000" stroke-width="2" stroke-miterlimit="10" points="178.6,484 45,484 45,446.6 114.7,446.6 	" />
		<rect id="box_2_" x="45" y="484.1" fill="#3F3D56" stroke="#000000" stroke-width="2" stroke-miterlimit="10" width="432.7" height="109.1" />
		<rect id="line_8_" x="76.2" y="557.6" fill="#FFFFFF" stroke="#000000" stroke-width="2" stroke-miterlimit="10" width="140.6" height="15.4" />
		<rect id="line_7_" x="73.2" y="530.9" fill="#FFFFFF" stroke="#000000" stroke-width="2" stroke-miterlimit="10" width="221.8" height="15.4" />
		<rect id="line_6_" x="73.2" y="502.4" fill="#FFFFFF" stroke="#000000" stroke-width="2" stroke-miterlimit="10" width="376.3" height="15.4" />
	</g>
	<g id="project_1_">
		<polygon id="flag_1_" fill="#6C63FF" stroke="#000000" stroke-width="2" stroke-miterlimit="10" points="178.6,313.9 45,313.9 45,276.5 114.7,276.5 	" />
		<rect id="box_1_" x="45" y="314" fill="#3F3D56" stroke="#000000" stroke-width="2" stroke-miterlimit="10" width="432.7" height="109.1" />
		<rect id="line_5_" x="76.2" y="387.5" fill="#FFFFFF" stroke="#000000" stroke-width="2" stroke-miterlimit="10" width="140.6" height="15.4" />
		<rect id="line_4_" x="73.2" y="360.8" fill="#FFFFFF" stroke="#000000" stroke-width="2" stroke-miterlimit="10" width="221.8" height="15.4" />
		<rect id="line_3_" x="73.2" y="332.3" fill="#FFFFFF" stroke="#000000" stroke-width="2" stroke-miterlimit="10" width="376.3" height="15.4" />
	</g>
	<g id="project">
		<polygon id="flag" fill="#6C63FF" stroke="#000000" stroke-width="2" stroke-miterlimit="10" points="178.6,138.7 45,138.7 45,101.3 114.7,101.3 	" />
		<rect id="box" x="45" y="138.8" fill="#3F3D56" stroke="#000000" stroke-width="2" stroke-miterlimit="10" width="432.7" height="109.1" />
		<rect id="line_2_" x="76.2" y="212.3" fill="#FFFFFF" stroke="#000000" stroke-width="2" stroke-miterlimit="10" width="140.6" height="15.4" />
		<rect id="line_1_" x="73.2" y="185.6" fill="#FFFFFF" stroke="#000000" stroke-width="2" stroke-miterlimit="10" width="221.8" height="15.4" />
		<rect id="line" x="73.2" y="157.1" fill="#FFFFFF" stroke="#000000" stroke-width="2" stroke-miterlimit="10" width="376.3" height="15.4" />
	</g>
	<path id="leftShoe" fill="#2F2E41" stroke="#000000" stroke-width="2" stroke-miterlimit="10" d="M857.6,713.3c-18.8-14.4-21.3,11.4-21.3,11.4l-4.5-2.7l-1.8,9l3.1,13.9c0,0-3.1,32.4,29.3,29.3 s13.9-29.3,13.9-29.3l-15.4-34L857.6,713.3" />
	<path id="rightShoe" fill="#2F2E41" stroke="#000000" stroke-width="2" stroke-miterlimit="10" d="M746.8,693.9c7.7,4.4,12.5,12.7,12.3,21.6c0,15.4-1.5,17-1.5,17l-23.2,6.2 c0,0-15.4-1.5-24.7,7.7s-55.6,15.4-55.6,3.1s38.6-32.4,38.6-32.4s11.5-19.4,19.6-17.4s11.2,5,11.2,6.6s-4.6,12.3-4.6,12.3 S745.2,712.4,746.8,693.9z" />
	<path id="rightLeg" fill="#FFB8B8" stroke="#000000" stroke-width="2" stroke-miterlimit="10" d="M712.3,699.7c8.1,2,11.2,5,11.2,6.6s-4.6,12.3-4.6,12.3s26.3-6.2,27.9-24.7 c0.7,0.4,1.3,0.8,1.9,1.2c0,0-1.4-22.8-1.4-22.8s-27.9,1-27.9,1c-0.6,11-4.4,20.8-7,26.4" />
	<path id="leftLeg" fill="#FFB8B8" stroke="#000000" stroke-width="2" stroke-miterlimit="10" d="M857.6,713.3l-0.5-31.4l-24.2,3.4l-1.1,36.7l4.5,2.7C836.3,724.7,838.8,698.8,857.6,713.3z" />
	<path id="pants" fill="#2F2E41" stroke="#000000" stroke-width="2" stroke-miterlimit="10" d="M815.2,329.5c-11.3,10.1-30.3,29.9-14.4,35.6c6.7,2.4,16.1-2.7,23.1-8.2l0.2,0.2l9.8,30.4 c0,0,2.8-0.3,7.2-0.8c0.5,2.9,1.1,6.6,1.4,9.3c4.6,40.1,12.3,146.6,12.3,146.6L870.2,680l-37.3,5.3l-5.9,0.8L805.8,548l-39-138.2 l-9.3,137.4l-7.7,125l-40.1,1.5L702,545l-12.8-144.8c2.2-0.5,3.5-1.1,3.5-1.1s12.7-89.1,12.7-89.1s102.7-2.5,102.7-2.5 C810.6,315.2,813,322.8,815.2,329.5z" />
	<path id="leftHand" fill="#FFB8B8" stroke="#000000" stroke-width="2" stroke-miterlimit="10" d="M823.9,356.9c-7,5.5-16.4,10.6-23.1,8.2c-15.9-5.7,3.1-25.4,14.4-35.6 M815.2,329.5 c0.8-0.8,1.7-1.5,2.4-2.1c0,0,13.2,23.2,13.2,23.2c-1.7,1.8-4.1,4.1-6.9,6.3" />
	<path id="leftManget" fill="#CFCCE0" stroke="#000000" stroke-width="2" stroke-miterlimit="10" d="M846.3,343.4c-4.5-9.9-12.7-23.4-24.8-27.8l-5.2,9.4l18.5,32.4 C834.7,357.4,846.3,343.4,846.3,343.4z" />
	<path id="leftArm" fill="#575A89" stroke="#000000" stroke-width="2" stroke-miterlimit="10" d="M843,218.5l12.1,41.9l-38.6,54c23.2,3.1,34,40.1,34,40.1l49.4-100.3c0,0-20.4-72.7-21.6-80.3 c-1.3-8-6.1-22-9.3-32.4c-3.3-10.8-11.8-22.4-11.8-22.4s-51-9.5-54.1-14.1s-12.3-5.3-12.3-5.3l-4.7,139.6c0,0,17.9,55.4,29.1,90.2 c0.8-0.8,1.7-1.5,2.4-2.1l0,0l-1.4-2.4l5.2-9.4c12.1,4.4,20.3,17.9,24.8,27.8c0,0-11.6,14-11.6,14s-3.9-6.8-3.9-6.8 c-1.7,1.8-4.1,4.1-6.9,6.3l0.2,0.2l9.8,30.4c0,0,33.2-3,47.1-9.3c6.8-3-3.5-34-11.2-62.7" />
	<path id="rightHand" fill="#FFB8B8" stroke="#000000" stroke-width="2" stroke-miterlimit="10" d="M645.3,339.3c-6.3,5.4-17.9,16.2-22,25.2c-0.4,0.7-2.7,5.2-0.7,9c0,0,1.4,2.7,5.3,4 c10,3.4,29.8-18,31.3-19.6c-0.3-1.9-0.8-4.3-2.1-7.2c-1.8-3.9-4-6.1-4.8-6.9c-1.8-1.7-3.6-2.8-4.9-3.4c-0.8-0.4-1.6-0.7-2.3-0.9 c-6.3,5.4-17.7,16-21.8,25c-0.4,0.7-2.7,5.2-0.7,9c0,0,1.4,2.7,5.3,4c10,3.4,29.8-18,31.3-19.6" />
	<path id="rightManget" fill="#CFCCE0" stroke="#000000" stroke-width="2" stroke-miterlimit="10" d="M645.5,332.6c5.5-1.5,15.7-1,21.6,20.6c-4,7.5-5.9,9.1-6.8,8.8c-1.5-0.4-0.2-4.9-3.2-11.4 c-1.8-3.9-4-6.1-4.8-6.9c-1.8-1.7-3.6-2.8-4.9-3.4c-3.1-1.5-5.6-1.5-5.6-1.5S645.5,332.6,645.5,332.6z" />
	<path id="rightArm" fill="#575A89" stroke="#000000" stroke-width="2" stroke-miterlimit="10" d="M677.3,341.3l-9.2,16.1c-7.7-35.5-26.2-23.2-26.2-23.2l37-66.4l7.7-54l4.6-61.7l36.4-24.6 l-16.4,94.1v47.8l-18.5,129.7c0,0-10.9,4.6-20.1,0s20.1-132.7,20.1-132.7" />
	<path id="chest" fill="#CFCCE0" stroke="#000000" stroke-width="2" stroke-miterlimit="10" d="M705.4,310l5.8-40.6v-47.8l16.4-94.1l9.5-12.5l7.3,22.5l6.2,15.4l7.7-20.1l6.2,1.6l7.7-6.2L782.4,96 l8.4,3.7l-4.7,139.6l22,68.2l0,0L705.4,310" />
	<path id="neck" fill="#FFB8B8" stroke="#000000" stroke-width="2" stroke-miterlimit="10" d="M737.1,115c-1-5.8-2.1-10.9-3.3-15c3.2,0.8,6.5,1.2,9.9,1.2c14.1,0,26.5-7.6,33.2-18.9l5.5,13.7 l-10.2,32.2l-7.7,6.2l-6.2-1.6l-7.7,20.1l-6.2-15.4L737.1,115z" />
	<path id="face" fill="#FFB8B8" stroke="#000000" stroke-width="2" stroke-miterlimit="10" d="M776.9,82.3c1.7-2.9,3.1-6.1,4-9.4c0,0-2.3-5.1-3.7-11.9c1.8-0.6,2.4-2.1,2.4-4.6 c0-3-1.9-5.4-4.3-5.4c-1,0-1.2-0.1-1.9,0.6c-5.2-5.9-15.3-10.4-15.3-10.4l6,8L748.9,47l4,6.6l-24.5-8l-2,8l-4-5.1 c0,4.3-7.3,10.9-7.3,10.9v-7.3c0,2.9-9,21.6-9,21.6l0,0c4.5,16.3,19.8,27.5,37.6,27.5C757.8,101.2,770.2,93.6,776.9,82.3z" />
	<path id="hair" fill="#2F2E41" stroke="#000000" stroke-width="2" stroke-miterlimit="10" d="M777.2,61c1.8-0.6,2.4-2.1,2.4-4.6c0-3-1.9-5.4-4.3-5.4c-1,0-1.2-0.1-1.9,0.6	c-5.2-5.9-15.3-10.4-15.3-10.4l6,8L748.9,47l4,6.6l-24.5-8l-2,8l-4-5.1c0,4.3-7.3,10.9-7.3,10.9v-7.3c0,2.9-9,21.6-9,21.6l0,0 c-3.1-2.5-5.1-6.1-5.6-10.1s-0.4-8,0.3-11.9L689.1,53l11.5-7.2l-3.3-7.2h7.8c5-10.6,13-20.1,20-28.1C738.3-4.8,752.9,1,752.9,1 l-6,6.6c21.2-1.5,36.4,15.3,36.4,15.3l-7.3,2.9c19.2,11,5.7,48.4,5.7,48.4S778.6,67.8,777.2,61z" />
</svg>
