<?xml version="1.0" encoding="utf-8"?>
<!-- Generator: Adobe Illustrator 25.1.0, SVG Export Plug-In . SVG Version: 6.00 Build 0)  -->
<svg version="1.1" id="b3347a10-18dd-4c71-91c3-38a98340ba03"
	 xmlns="http://www.w3.org/2000/svg" xmlns:xlink="http://www.w3.org/1999/xlink" x="0px" y="0px" viewBox="0 0 963.5 774.4"
	 style="enable-background:new 0 0 963.5 774.4;" xml:space="preserve">
<style type="text/css">
	.st0{fill:none;stroke:#000000;stroke-width:2;stroke-miterlimit:10;}
</style>
<path class="st0" d="M645.5,332.7l-3.7,6.2c0,0,2.5,0,5.6,1.5c1.3,0.6,3.1,1.7,4.9,3.4c0.8,0.8,3,3,4.8,6.9c3,6.5,1.7,11,3.2,11.4
	c0.9,0.3,2.8-1,6.8-8.5"/>
<path class="st0" d="M645.3,339.3c-6.3,5.4-17.9,16.2-22,25.2c-0.4,0.7-2.7,5.2-0.7,9c0,0,1.4,2.7,5.3,4c10,3.4,30.2-18.4,31.7-20"
	/>
<line class="st0" x1="856.6" y1="682" x2="857.6" y2="713.3"/>
<path class="st0" d="M856.6,682"/>
<line class="st0" x1="831.8" y1="722" x2="832.9" y2="685.3"/>
<path class="st0" d="M747.3,672.4l1.4,22.8"/>
<path class="st0" d="M712.4,699.7c2.6-5.6,6.4-15.2,7-26.2"/>
<path class="st0" d="M841.3,387.7c0.5,2.9,0.9,5.6,1.2,8.3c4.6,40.1,12.3,146.6,12.3,146.6L870.2,680l-37.3,5.3"/>
<path class="st0" d="M832.9,685.3l-5.9,0.8l-18.5-138.9l-41.7-137.4l-9.3,137.4l-7.7,125l-40.1,1.5L706.6,544l-14.9-144.7"/>
<path class="st0" d="M857,713.6l3.9-2.7l15.4,34c0,0,18.5,26.2-13.9,29.3s-29.3-29.3-29.3-29.3L830,731l1.5-9.1"/>
<path class="st0" d="M831.7,721.8l4.6,2.9c0,0,3-25.7,21.8-11.2"/>
<path class="st0" d="M746.8,693.9c7.7,4.4,12.5,12.7,12.3,21.6c0,15.4-1.5,17-1.5,17l-23.2,6.2c0,0-15.4-1.5-24.7,7.7
	s-55.6,15.4-55.6,3.1s38.6-32.4,38.6-32.4s11.5-19.4,19.6-17.4s11.2,5,11.2,6.6s-4.6,12.3-4.6,12.3S745.2,712.4,746.8,693.9z"/>
<path class="st0" d="M780.9,72.9c-0.9,3.3-2.3,6.5-4,9.4"/>
<path class="st0" d="M776.9,82.3c-6.7,11.3-19.1,18.9-33.2,18.9c-17.8,0-32.7-12-37.2-28.3"/>
<path class="st0" d="M776.6,82.7l5.8,13.3"/>
<path class="st0" d="M737.1,115c-1-5.8-2.1-11-3.3-15.1"/>
<polyline class="st0" points="727.6,127.5 737.1,115 744.4,137.5 750.6,152.9 758.3,132.8 764.5,134.4 772.2,128.2 783,94.3 
	790.8,99.7 "/>
<line class="st0" x1="808.1" y1="307.5" x2="705.5" y2="310"/>
<path class="st0" d="M815.2,329.5l-29.1-90.2l4.7-139.6c0,0,9.2,0.7,12.3,5.3s54.1,14.1,54.1,14.1"/>
<path class="st0" d="M865.9,322.3c7.7,28.7,13.4,57.6,6.6,60.6c-13.9,6.2-38.6,4.6-38.6,4.6l-9.8-30.4"/>
<path class="st0" d="M700.5,220"/>
<path class="st0" d="M692.7,266.4c0,0-29.3,128.1-20.1,132.7s20.1,0,20.1,0l18.5-129.7v-47.8l16.4-94.1l-36.4,24.6"/>
<path class="st0" d="M692.7,266.4"/>
<path class="st0" d="M700.5,220"/>
<path class="st0" d="M691.7,151.3l-5.1,62.5l-7.7,54l-37,66.4c0,0,18.5-12.3,26.2,23.2l9.3-16.2"/>
<path class="st0" d="M824.1,357.1c2.3-2.5,4.3-5.2,5.9-7.8"/>
<path class="st0" d="M817.6,327.4c-10.6,9.2-33.9,31.6-16.8,37.7c9.4,3.4,17.4-1.5,23.4-8"/>
<polyline class="st0" points="846.1,343.6 834.7,357.4 816.2,325 821.5,315.5 "/>
<path class="st0" d="M856.5,118.5v0.3c0,0,10.6,11.7,12.1,22.5s9.3,24.7,9.3,32.4s21.6,80.3,21.6,80.3l-49.4,100.3
	c0,0-10.8-37-34-40.1l38.6-54l-21.6-38.6"/>
<path class="st0" d="M777.2,61c1.4,6.8,4.5,13.2,4.5,13.2s13.5-37.4-5.7-48.4l7.3-2.9c0,0-15.2-16.8-36.4-15.3l6-6.6
	c0,0-14.6-5.8-27.8,9.5c-7,8-15,17.5-20,28.1h-7.8l3.3,7.2L689.1,53l11.7-1.3c-0.7,3.9-0.8,7.9-0.3,11.9s2.5,7.6,5.6,10.1l0,0
	c0,0,9-18.7,9-21.6v7.3c0,0,7.3-6.6,7.3-10.9l4,5.1l2-8l24.5,8l-4-6.6l15.2,2.2l-6-8c0,0,10.1,4.5,15.3,10.4"/>
<path class="st0" d="M772.6,52.2c0.7-0.7,1.7-1.2,2.7-1.2c2.4,0,4.3,2.4,4.3,5.4c0,2.5-1.4,4.6-3.2,5.2"/>
<polygon class="st0" points="178.6,313 45,313 45,275.8 114.7,275.8 "/>
<rect x="45" y="313" class="st0" width="432.7" height="109.1"/>
<rect x="73.2" y="388.4" class="st0" width="140.6" height="15.4"/>
<rect x="73.2" y="359.8" class="st0" width="376.3" height="15.4"/>
<rect x="73.2" y="331.3" class="st0" width="376.3" height="15.4"/>
<polygon class="st0" points="178.6,138.7 45,138.7 45,101.3 114.7,101.3 "/>
<rect x="45" y="138.8" class="st0" width="432.7" height="109.1"/>
<rect x="73.2" y="214.2" class="st0" width="140.6" height="15.4"/>
<rect x="73.2" y="185.6" class="st0" width="221.8" height="15.4"/>
<rect x="73.2" y="157.1" class="st0" width="376.3" height="15.4"/>
<polygon class="st0" points="178.6,483.6 45,483.6 45,446.6 114.7,446.6 "/>
<rect x="45" y="483.6" class="st0" width="432.7" height="109.1"/>
<rect x="73.2" y="559" class="st0" width="221.8" height="15.4"/>
<rect x="73.2" y="530.4" class="st0" width="221.8" height="15.4"/>
<rect x="73.2" y="501.9" class="st0" width="376.3" height="15.4"/>
<polygon class="st0" points="600.3,223.7 538.8,223.7 538.8,162.2 580.5,162.2 580.5,163.6 540.3,163.6 540.3,222.2 598.8,222.2 
	598.8,192.9 600.3,192.9 "/>
<path class="st0" d="M569.2,207.6c-1.4-4.2-19.2-18.5-8.3-20.9l9,11.9l41.2-41.2l4.1,4.1L569.2,207.6z"/>
<polyline class="st0" points="600.3,374.8 600.3,397.9 538.8,397.9 538.8,336.4 580.5,336.4 580.5,337.9 540.3,337.9 540.3,396.5 
	598.8,396.5 598.8,375.7 "/>
<path class="st0" d="M569.2,381.9c-1.4-4.2-19.2-18.5-8.3-20.9l9,11.9l41.2-41.2l4.1,4.1L569.2,381.9z"/>
<polygon class="st0" points="600.3,571.4 538.8,571.4 538.8,509.9 580.5,509.9 580.5,511.4 540.3,511.4 540.3,570 598.8,570 
	598.8,540.7 600.3,540.7 "/>
<path class="st0" d="M569.2,555.4c-1.4-4.2-19.2-18.5-8.3-20.9l9,11.9l41.2-41.2l4.1,4.1L569.2,555.4z"/>
</svg>
