<?xml version="1.0" encoding="utf-8"?>
<!-- Generator: Adobe Illustrator 25.1.0, SVG Export Plug-In . SVG Version: 6.00 Build 0)  -->
<svg version="1.1" id="b3347a10-18dd-4c71-91c3-38a98340ba03"
	 xmlns="http://www.w3.org/2000/svg" xmlns:xlink="http://www.w3.org/1999/xlink" x="0px" y="0px" viewBox="0 0 963.5 774.4"
	 style="enable-background:new 0 0 963.5 774.4;" xml:space="preserve">
<style type="text/css">
	.st0{display:none;fill:none;stroke:#000000;stroke-miterlimit:10;}
	.st1{display:none;}
	.st2{display:inline;fill:none;stroke:#000000;stroke-width:2;stroke-miterlimit:10;}
	.st3{fill:none;stroke:#000000;stroke-width:2;stroke-miterlimit:10;}
</style>
<polygon id="checkbox_2_" class="st0" points="600.3,571.4 538.8,571.4 538.8,509.9 580.5,509.9 580.5,511.4 540.3,511.4 540.3,570 
	598.8,570 598.8,540.7 600.3,540.7 "/>
<polyline id="checkbox_1_" class="st0" points="600.3,374.8 600.3,397.9 538.8,397.9 538.8,336.4 580.5,336.4 580.5,337.9 
	540.3,337.9 540.3,396.5 598.8,396.5 598.8,375.7 "/>
<polygon id="checkbox" class="st0" points="600.3,223.7 538.8,223.7 538.8,162.2 580.5,162.2 580.5,163.6 540.3,163.6 540.3,222.2 
	598.8,222.2 598.8,192.9 600.3,192.9 "/>
<path id="check_2_" class="st0" d="M561.3,534.5l-4.3,4.3l12.6,16.6l46-46.1l-4.1-4.1l-41.2,41.2L561.3,534.5l9,11.9"/>
<path id="check_1_" class="st0" d="M560.9,361l-4.3,4.3l12.6,16.6l46-46.1l-4.1-4.1l-41.2,41.2L560.9,361l9,11.9"/>
<path id="check" class="st0" d="M560.9,186.7l-4.3,4.3l12.6,16.6l46-46.1l-4.1-4.1l-41.2,41.2L560.9,186.7l9,11.9"/>
<g id="project_2_" class="st1">
	<polygon id="flag_2_" class="st2" points="178.6,484 45,484 45,446.6 114.7,446.6 	"/>
	<rect id="box_2_" x="45" y="484.1" class="st2" width="432.7" height="109.1"/>
	<rect id="line_8_" x="76.2" y="557.6" class="st2" width="140.6" height="15.4"/>
	<rect id="line_7_" x="73.2" y="530.9" class="st2" width="221.8" height="15.4"/>
	<rect id="line_6_" x="73.2" y="502.4" class="st2" width="376.3" height="15.4"/>
</g>
<g id="project_1_" class="st1">
	<polygon id="flag_1_" class="st2" points="178.6,313.9 45,313.9 45,276.5 114.7,276.5 	"/>
	<rect id="box_1_" x="45" y="314" class="st2" width="432.7" height="109.1"/>
	<rect id="line_5_" x="76.2" y="387.5" class="st2" width="140.6" height="15.4"/>
	<rect id="line_4_" x="73.2" y="360.8" class="st2" width="221.8" height="15.4"/>
	<rect id="line_3_" x="73.2" y="332.3" class="st2" width="376.3" height="15.4"/>
</g>
<g id="project" class="st1">
	<polygon id="flag" class="st2" points="178.6,138.7 45,138.7 45,101.3 114.7,101.3 	"/>
	<rect id="box" x="45" y="138.8" class="st2" width="432.7" height="109.1"/>
	<rect id="line_2_" x="76.2" y="212.3" class="st2" width="140.6" height="15.4"/>
	<rect id="line_1_" x="73.2" y="185.6" class="st2" width="221.8" height="15.4"/>
	<rect id="line" x="73.2" y="157.1" class="st2" width="376.3" height="15.4"/>
</g>
<path class="st3" d="M645.5,332.7l-3.7,6.2c0,0,2.5,0,5.6,1.5c1.3,0.6,3.1,1.7,4.9,3.4c0.8,0.8,3,3,4.8,6.9c3,6.5,1.7,11,3.2,11.4
	c0.9,0.3,2.8-1,6.8-8.5"/>
<path class="st3" d="M645.3,339.3c-6.3,5.4-17.9,16.2-22,25.2c-0.4,0.7-2.7,5.2-0.7,9c0,0,1.4,2.7,5.3,4c10,3.4,30.2-18.4,31.7-20"
	/>
<line class="st3" x1="856.6" y1="682" x2="857.6" y2="713.3"/>
<line class="st3" x1="831.8" y1="722" x2="832.9" y2="685.3"/>
<path class="st3" d="M747.3,672.4l1.4,22.8"/>
<path class="st3" d="M712.4,699.7c2.6-5.6,6.4-15.2,7-26.2"/>
<path class="st3" d="M841.3,387.7c0.5,2.9,0.9,5.6,1.2,8.3c4.6,40.1,12.3,146.6,12.3,146.6L870.2,680l-37.3,5.3"/>
<path class="st3" d="M832.9,685.3l-5.9,0.8l-18.5-138.9l-41.7-137.4l-9.3,137.4l-7.7,125l-40.1,1.5L706.6,544l-14.9-144.7"/>
<path class="st3" d="M857,713.6l3.9-2.7l15.4,34c0,0,18.5,26.2-13.9,29.3s-29.3-29.3-29.3-29.3L830,731l1.5-9.1"/>
<path class="st3" d="M831.7,721.8l4.6,2.9c0,0,3-25.7,21.8-11.2"/>
<path class="st3" d="M746.8,693.9c7.7,4.4,12.5,12.7,12.3,21.6c0,15.4-1.5,17-1.5,17l-23.2,6.2c0,0-15.4-1.5-24.7,7.7
	s-55.6,15.4-55.6,3.1s38.6-32.4,38.6-32.4s11.5-19.4,19.6-17.4s11.2,5,11.2,6.6s-4.6,12.3-4.6,12.3S745.2,712.4,746.8,693.9z"/>
<line class="st3" x1="782.4" y1="96" x2="790.8" y2="99.7"/>
<line class="st3" x1="727.6" y1="127.5" x2="737.1" y2="115"/>
<line class="st3" x1="808.1" y1="307.5" x2="705.5" y2="310"/>
<path class="st3" d="M815.2,329.5l-29.1-90.2l4.7-139.6c0,0,9.2,0.7,12.3,5.3s54.1,14.1,54.1,14.1"/>
<path class="st3" d="M865.9,322.3c7.7,28.7,13.4,57.6,6.6,60.6c-13.9,6.2-38.6,4.6-38.6,4.6l-9.8-30.4"/>
<path class="st3" d="M692.7,266.4c0,0-29.3,128.1-20.1,132.7s20.1,0,20.1,0l18.5-129.7v-47.8l16.4-94.1l-36.4,24.6"/>
<path class="st3" d="M691.7,151.3l-5.1,62.5l-7.7,54l-37,66.4c0,0,18.5-12.3,26.2,23.2l9.3-16.2"/>
<path class="st3" d="M824.1,357.1c2.3-2.5,4.3-5.2,5.9-7.8"/>
<path class="st3" d="M817.6,327.4c-10.6,9.2-33.9,31.6-16.8,37.7c9.4,3.4,17.4-1.5,23.4-8"/>
<polyline class="st3" points="846.1,343.6 834.7,357.4 816.2,325 821.5,315.5 "/>
<path class="st3" d="M856.5,118.5v0.3c0,0,10.6,11.7,12.1,22.5s9.3,24.7,9.3,32.4s21.6,80.3,21.6,80.3l-49.4,100.3
	c0,0-10.8-37-34-40.1l38.6-54l-21.6-38.6"/>
<path id="chest" class="st3" d="M705.4,310l5.8-40.6v-47.8l16.4-94.1c0,0,9.5-12.5,9.5-12.5l7.3,22.5l6.2,15.4l7.7-20.1l6.2,1.6
	l7.7-6.2L782.4,96c0,0,8.4,3.7,8.4,3.7l-4.7,139.6l22,68.2l0,0L705.4,310"/>
<path id="neck" class="st3" d="M737.1,115c-1-5.8-2.1-10.9-3.3-15c3.2,0.8,6.5,1.2,9.9,1.2c14.1,0,26.5-7.6,33.2-18.9l5.5,13.7
	l-10.2,32.2l-7.7,6.2l-6.2-1.6l-7.7,20.1l-6.2-15.4L737.1,115z"/>
<path id="face" class="st3" d="M776.9,82.3c1.7-2.9,3.1-6.1,4-9.4c0,0-2.3-5.1-3.7-11.9c1.8-0.6,2.4-2.1,2.4-4.6
	c0-3-1.9-5.4-4.3-5.4c-1,0-1.2-0.1-1.9,0.6c-5.2-5.9-15.3-10.4-15.3-10.4l6,8L748.9,47l4,6.6l-24.5-8l-2,8l-4-5.1
	c0,4.3-7.3,10.9-7.3,10.9v-7.3c0,2.9-9,21.6-9,21.6l0,0c4.5,16.3,19.8,27.5,37.6,27.5C757.8,101.2,770.2,93.6,776.9,82.3z"/>
<path id="hair" class="st3" d="M777.2,61c1.8-0.6,2.4-2.1,2.4-4.6c0-3-1.9-5.4-4.3-5.4c-1,0-1.2-0.1-1.9,0.6
	c-5.2-5.9-15.3-10.4-15.3-10.4l6,8L748.9,47l4,6.6l-24.5-8l-2,8l-4-5.1c0,4.3-7.3,10.9-7.3,10.9v-7.3c0,2.9-9,21.6-9,21.6l0,0
	c-3.1-2.5-5.1-6.1-5.6-10.1s-0.4-8,0.3-11.9L689.1,53l11.5-7.2l-3.3-7.2h7.8c5-10.6,13-20.1,20-28.1C738.3-4.8,752.9,1,752.9,1
	l-6,6.6c21.2-1.5,36.4,15.3,36.4,15.3l-7.3,2.9c19.2,11,5.7,48.4,5.7,48.4S778.6,67.8,777.2,61z"/>
</svg>
